<svg version="1.1" id="Layer_1" xmlns:dc="http://purl.org/dc/elements/1.1/" xmlns:cc="http://web.resource.org/cc/" xmlns:rdf="http://www.w3.org/1999/02/22-rdf-syntax-ns#" xmlns:svg="http://www.w3.org/2000/svg" xmlns="http://www.w3.org/2000/svg" xmlns:xlink="http://www.w3.org/1999/xlink" x="0px" y="0px" width="520px" height="428px" viewBox="0 -0.167 520 428" enable-background="new 0 -0.167 520 428" xml:space="preserve">
		<g>
			<path class="rg1" data-target="finnmarkMap" d="M517.483,90.806c-2.998-6.286-7.52-8.49-7.52-3.666c0,4.371-4.404,2.868-6.323-2.157
				c-1.732-4.536-1.871-4.347-3.144,4.314c-1.094,7.443-1.942,9.059-4.762,9.059c-2.58,0-3.207-0.854-2.527-3.451
				c1.044-3.992-1.369-4.722-2.85-0.863c-1.036,2.703-8.003,3.678-8.003,1.121c0-0.808,0.882-3.997,1.958-7.087
				c1.532-4.394,1.477-5.918-0.251-6.986c-1.217-0.751-1.776-2.497-1.245-3.88c0.743-1.939-1.802-3.036-11.139-4.797
				c-10.748-2.028-15.802-5.098-13.001-7.897c0.499-0.499,5.341-0.087,10.758,0.915c13.333,2.464,24.394-0.253,28.229-6.935
				c2.757-4.805,8.474-8.454,13.243-8.454c2.586,0,3.298-4.557,1.459-9.349c-0.576-1.501-2.423-2.729-4.104-2.729
				c-1.68,0-3.993-1.132-5.141-2.515c-1.416-1.705-3.79-2.175-7.367-1.459c-4.955,0.991-5.214,0.788-4.193-3.282
				c0.78-3.109,0.12-5.216-2.333-7.436c-3.088-2.795-3.423-2.818-3.423-0.243c0,1.705-1.392,2.856-3.451,2.856
				c-2.063,0-3.451-1.151-3.451-2.856c0-2.657-0.221-2.657-3.156,0c-4.729,4.281-6.919,3.479-7.521-2.752
				c-0.678-7.03-6.712-8.57-12.451-3.176c-3.319,3.117-3.77,5.189-3.5,16.103c0.347,14.152-1.306,20.291-5.468,20.291
				c-2.243,0-2.627-1.099-1.812-5.177c0.871-4.354,0.493-5.177-2.373-5.177c-4.35,0-4.324-2.606,0.079-8.203l3.488-4.434
				l-5.214-2.525c-6.503-3.149-7.17-8.996-1.026-8.996c2.975,0,4.975-1.578,6.902-5.442c1.495-2.993,2.717-5.603,2.717-5.8
				c0-0.197-1.941,0.012-4.314,0.466c-3.469,0.663-4.313,0.131-4.313-2.719c0-3.087-0.78-3.417-6.039-2.564
				c-3.92,0.636-6.04,0.295-6.04-0.971c0-1.074-0.704-1.952-1.565-1.952c-0.859,0-1.157,1.553-0.66,3.451
				c0.527,2.021,0.052,3.451-1.147,3.451c-2.41,0-6.98,4.247-6.98,6.484c0,0.855,1.723,1.493,3.829,1.417
				c5.103-0.182,5.953,4.807,1.614,9.465c-2.17,2.329-3.846,7.363-4.592,13.792c-0.885,7.613-1.951,10.37-4.306,11.118
				c-1.722,0.546-3.565,2.128-4.098,3.516c-0.533,1.387-2.266,2.522-3.853,2.522c-2.464,0-2.74-1.382-1.904-9.491
				c0.557-5.388,0.288-9.49-0.62-9.49c-2.555,0-1.869-3.219,1.758-8.267c4.351-6.054,3.156-15.003-1.658-12.427
				c-1.7,0.909-4.789,5.161-6.863,9.448c-2.076,4.287-4.533,7.794-5.462,7.794s-1.189,1.57-0.579,3.489
				c1.352,4.258-3.78,18.364-7.15,19.657c-1.614,0.62-2.084,2.342-1.392,5.102c1.438,5.738-3.468,14.588-8.839,15.936
				c-5.44,1.366-6.188,0.617-6.522-6.529c-0.246-5.278,0.119-5.705,4.617-5.388c3.593,0.252,4.445-0.203,3.229-1.726
				c-0.91-1.139-1.643-6.729-1.628-12.423c0.023-9.5,0.495-10.78,5.72-15.53c5.653-5.141,9.807-16.393,6.051-16.393
				c-1.024,0-1.862-1.531-1.862-3.402c0-2.355,1.724-3.899,5.608-5.021c3.084-0.891,4.248-1.689,2.588-1.774
				c-1.661-0.086-3.02-1.195-3.02-2.467s-1.882-3.169-4.181-4.216c-3.574-1.628-4.538-1.355-6.659,1.88
				c-1.89,2.883-2.022,4.557-0.564,7.026c1.443,2.448,1.385,3.435-0.243,4.027c-1.187,0.431-2.157,2.273-2.157,4.091
				c0,1.82-0.829,3.308-1.84,3.308c-2.495,0-9.121-3.576-10.478-5.656c-1.999-3.065-4.491,0.313-3.615,4.899
				c0.705,3.683,0.27,4.402-2.388,3.952c-1.788-0.303-3.444,0.019-3.68,0.716c-1.156,3.387-0.061,4.717,3.882,4.717
				c3.502,0,4.314,0.849,4.314,4.515c0,3.675-0.647,4.346-3.475,3.607c-4.751-1.243-8.618,5.435-4.487,7.747
				c1.531,0.857,2.785,2.771,2.785,4.253c0,2.131-1.23,2.463-5.888,1.59c-5.142-0.965-6.338-0.471-9.447,3.896
				c-1.959,2.75-4.337,7.043-5.287,9.54c-0.949,2.497-2.327,4.543-3.063,4.547c-0.736,0.004-1.476,2.722-1.646,6.039
				c-0.168,3.317,0.413,6.032,1.295,6.032c2.462,0,1.902,5.124-0.861,7.888c-4.515,4.514-7.563,2.988-7.372-3.69
				c0.096-3.385-0.696-6.693-1.76-7.35c-2.773-1.714-4.782-10.652-2.396-10.652c1.054,0,1.915-2.33,1.915-5.176
				c0-6.155,4.637-7.247,5.495-1.294c0.467,3.241,1.199,2.58,4.434-3.996c4.206-8.55,4.846-12.887,2.149-14.554
				c-0.95-0.586-1.726-0.045-1.726,1.203c0,1.248-2.254,3.267-5.008,4.485c-2.854,1.264-5.465,4.041-6.071,6.46
				c-0.765,3.048-2.245,4.245-5.246,4.245c-4.989,0-7.441,3.047-3.628,4.511c2.958,1.135,3.741,5.842,0.973,5.842
				c-0.95,0-1.726,1.165-1.726,2.588s-1.166,2.588-2.589,2.588c-1.424,0-2.588-1.463-2.588-3.25c0-1.9-1.582-3.664-3.809-4.246
				c-4.408-1.153-4.049-1.385-5.584,3.613c-1.018,3.31-0.557,3.882,3.121,3.882c4.305,0,4.764,0.705,7.006,10.785
				c0.58,2.61,2.106,4.745,3.389,4.745c1.49,0,2.738,3.049,3.453,8.436c0.85,6.412,1.938,8.65,4.536,9.329
				c5.811,1.519,2.975,13.295-3.201,13.295c-6.11,0-7.236,3.492-3.492,10.83c4.909,9.622,3.321,17.826-3.749,19.379
				c-5.426,1.192-6.07,2.514-3.575,7.345c0.853,1.648,2.913,6.296,4.578,10.33c2.315,5.61,3.955,7.333,6.978,7.333
				c2.172,0,4.429,0.777,5.017,1.726c0.587,0.949,2.961,1.726,5.278,1.726c2.316,0,4.236,0.971,4.265,2.157
				c0.028,1.197,0.834,0.813,1.812-0.863c0.967-1.661,3.646-3.02,5.953-3.02c3.02,0,4.494-1.191,5.263-4.252
				c1.14-4.541,7.869-7.96,8.999-4.574c1.356,4.074,5.507,6.655,12.489,7.772c5.133,0.82,7.448,2.125,8.082,4.553
				c0.49,1.871,1.257,3.403,1.707,3.403c2.085,0,7.3-8.164,7.351-11.506c0.101-6.495,2.023-9.254,8.269-11.864l6.066-2.536
				l-1.196-14.746c-1.594-19.651,1.501-39.947,6.86-44.977c2.146-2.016,5.196-6.167,6.779-9.226c2.566-4.963,3.471-5.451,8.399-4.526
				c4.306,0.808,6.072,0.274,8.015-2.42c1.37-1.902,3.168-3.457,3.995-3.457c0.828,0,3.479-1.553,5.892-3.451
				c4.683-3.684,10.825-4.623,10.825-1.657c0,2.992,14.142,15.461,17.535,15.461c1.744,0,3.171,0.777,3.171,1.726
				s1.537,1.726,3.416,1.726c2.241,0,4.614,2.348,6.902,6.833c4.457,8.739,4.388,10.481-0.827,20.776
				c-5.04,9.944-5.511,16.864-1.354,19.904c4.068,2.973,7.265-1.375,7.337-9.98c0.044-5.139,1.433-7.888,6.756-13.373
				c3.686-3.798,7.553-6.904,8.594-6.904c1.042,0,2.362-2.135,2.936-4.745c0.571-2.61,1.338-5.716,1.704-6.902
				c0.792-2.574,7.021-2.885,8.54-0.426c0.893,1.443,5.958-0.007,9.13-2.613C520.236,97.245,519.122,94.244,517.483,90.806z
				 M490.983,83.833c0,3.047,3.714,2.517,4.78-0.683c0.376-1.127-0.546-2.049-2.049-2.049S490.983,82.33,490.983,83.833z
				 M302.035,43.139c1.437,0,2.588,1.534,2.588,3.451c0,7.277,13.917,2.422,21.481-7.494c4.949-6.49,6.455-15.513,1.814-10.871
				c-1.424,1.424-2.588,3.505-2.588,4.625c0,1.31-1.539,1.65-4.314,0.953c-3.535-0.887-4.313-0.454-4.313,2.401
				c0,3.801-4.358,4.805-5.76,1.327c-0.698-1.726-0.898-1.726-1.008,0c-0.076,1.216-2.395,2.157-5.312,2.157
				c-2.848,0-5.177,0.777-5.177,1.726C299.446,42.362,300.61,43.139,302.035,43.139z M346.036,40.449
				c0-2.593-0.996-4.212-2.588-4.212c-1.424,0-2.589-0.932-2.589-2.071c0-1.401-0.567-1.504-1.752-0.318
				c-1.187,1.187-0.865,3.535,0.997,7.266C343.16,47.237,346.036,46.915,346.036,40.449z M346.036,18.981
				c0.949,0,1.67-2.135,1.604-4.746c-0.108-4.205-0.292-4.353-1.604-1.294c-0.817,1.898-1.538,4.033-1.605,4.745
				C344.365,18.399,345.086,18.981,346.036,18.981z M361.567,8.628c0.948,0,1.726-0.777,1.726-1.726s-0.777-1.726-1.726-1.726
				c-0.95,0-1.726,0.777-1.726,1.726S360.616,8.628,361.567,8.628z">
				<title>Finnmark</title>
			</path>
			<path class="rg2" data-target="tromsMap" d="M319.272,112.456c-0.574-0.928-2.137-1.689-3.473-1.689c-1.609,0-2.813-2.906-3.571-8.628
				c-0.711-5.356-1.996-8.628-3.394-8.628c-2.206,0-2.87-1.437-4.887-10.561c-0.819-3.703-2.265-4.723-7.992-5.639
				c-4.781-0.764-7.397-2.212-8.272-4.575c-1.161-3.137-1.593-3.219-4.678-0.887c-2.748,2.079-2.877,2.581-0.666,2.625
				c1.505,0.03,4.812,2.384,7.348,5.231c2.792,3.133,6.311,5.177,8.914,5.177c3.149,0,4.301,0.922,4.301,3.451
				c0,1.898-0.805,3.451-1.787,3.451c-1.231,0-1.231,1.038,0,3.337c2.352,4.393,2.275,8.742-0.153,8.742
				c-1.066,0-5.015-3.494-8.774-7.765c-3.759-4.271-8.09-7.765-9.621-7.765c-2.167,0-2.327,0.46-0.717,2.07
				c3.388,3.387,2.362,6.558-2.116,6.558c-2.538,0-4.499-1.19-4.977-3.02c-0.514-1.965-0.859-1.45-0.99,1.474
				c-0.109,2.471-2.141,6.588-4.513,9.147c-2.373,2.561-4.314,6.473-4.314,8.695c0,2.223-1.166,4.487-2.588,5.034
				c-1.424,0.546-2.589,2.645-2.589,4.664c0,5.4-5.451,13.693-9,13.693c-4.004,0-3.882-3.066,0.373-9.49
				c1.886-2.847,3.466-7.895,3.515-11.216c0.047-3.322,1.207-9.146,2.573-12.941c4.004-11.112,3.012-12.688-3.547-5.633
				c-6.28,6.754-8.165,15.124-3.404,15.124c1.423,0,2.589,1.164,2.589,2.588c0,1.423-1.411,2.588-3.133,2.588
				c-1.879,0-4.282,2.414-6.011,6.04c-2.838,5.951-8.112,8.318-8.112,3.639c0-1.32,1.535-5.784,3.412-9.922
				c7.85-17.296,3.112-20.713-10.063-7.26c-5.435,5.55-11.353,10.919-13.147,11.932c-3.161,1.782-3.146,1.962,0.5,5.608
				c4.639,4.639,4.733,6.58,0.43,8.883c-4.946,2.646-7.015,2.186-7.015-1.563c0-4.307-3.39-6.427-5.343-3.343
				c-0.829,1.309-1.519,5.291-1.534,8.85c-0.022,5.575-0.569,6.471-3.955,6.471c-9.172,0-16.054,11.237-8.149,13.305
				c3.999,1.046,4.703,5.676,0.863,5.676c-1.424,0-2.588,1.076-2.588,2.392c0,1.315-2.718,3.681-6.04,5.257
				c-3.323,1.576-6.039,3.606-6.039,4.51c0,2.348-4.757,2.041-5.558-0.359c-0.399-1.198-2.996,0.077-6.459,3.17
				c-6.665,5.955-5.886,9.576,1.73,8.052c3.239-0.648,5.109-0.312,5.109,0.919c0,2.881,5.126,2.353,6.279-0.647
				c0.546-1.424,2.074-2.588,3.396-2.588c1.323,0,2.404-0.707,2.404-1.569c0-0.864,3.48-1.517,7.735-1.453
				c6.083,0.092,7.962,0.833,8.799,3.469c0.773,2.439,1.581,2.834,2.963,1.453c2.888-2.888,6.034-2.276,7.2,1.399
				c0.755,2.377,3.314,3.62,9.175,4.453c4.47,0.635,12.399,3.354,17.62,6.042l9.49,4.887l3.79-4.594
				c3.235-3.924,3.424-4.875,1.294-6.511c-3.292-2.527-3.149-4.052,0.775-8.326c1.798-1.959,3.79-7.474,4.425-12.253
				c0.991-7.459,0.649-9.148-2.408-11.915c-5.134-4.645-4.506-7.865,1.534-7.865c2.802,0,7.025-0.88,9.384-1.955
				c3.483-1.587,4.818-1.424,7.106,0.863c4.165,4.166,4.72,3.53,3.454-3.959c-1.006-5.954-0.627-7.117,3.118-9.57
				c6.28-4.115,12.501-1.855,17.018,6.179c3.884,6.911,4.808,7.379,11.19,5.667c5.586-1.499,6.359-7.964,2.021-16.893
				c-3.125-6.432-3.384-8.194-1.528-10.429c1.227-1.479,3.662-2.688,5.411-2.688C316.891,121.12,320.935,115.147,319.272,112.456z
				 M150.366,187.904c-2.275,1.706-3.827,3.61-3.449,4.233c1.462,2.409,7.586-0.822,7.586-4.003
				C154.504,184.908,154.374,184.901,150.366,187.904z M160.106,166.414c-2.787-0.929-2.784-5.085,0.005-6.119
				c1.579-0.585,1.348-1.646-0.863-3.964c-2.029-2.127-3.02-2.424-3.02-0.905c0,1.243-1.606,4.515-3.569,7.272
				c-1.963,2.756-2.738,5.012-1.726,5.012c1.015,0,1.844,0.769,1.844,1.71c0,2.501-10.468,12.094-13.198,12.094
				c-1.283,0-2.333,1.622-2.333,3.604c0,3.469,0.201,3.436,5.308-0.863c2.92-2.457,7.015-4.467,9.1-4.467
				C156.165,179.789,163.832,167.656,160.106,166.414z M175.222,165.973c-6.476,5.781-5.406,6.54,2.939,2.086
				c3.651-1.948,5.085-3.692,4.206-5.114C181.389,161.364,179.475,162.176,175.222,165.973z M172.19,148.175
				c1.66,0.443,3.069,1.721,3.129,2.837c0.059,1.117,0.792,0.334,1.628-1.739c1.901-4.718,6.862-7.447,13.536-7.447
				c4.766,0,5.281-0.626,6.963-8.468c1.473-6.87,1.311-9.479-0.856-13.823c-1.585-3.179-3.461-4.866-4.617-4.151
				c-4.92,3.04-8.136,6.744-8.136,9.369c0,1.576-1.584,3.281-3.52,3.787c-2.809,0.735-3.294,1.82-2.401,5.377
				c0.959,3.819,0.536,4.487-2.951,4.658c-2.925,0.144-3.22,0.423-1.05,0.99c4.27,1.115,3.75,5.076-0.863,6.557
				C169.765,147.177,169.633,147.493,172.19,148.175z M222.631,105.01c1.872-3.478,4.304-6.323,5.402-6.323s3.27-1.941,4.824-4.314
				c3.112-4.75,7.924-5.798,7.924-1.726c0,3.12,2.012,3.336,4.831,0.518c2.803-2.802,2.606-4.831-0.465-4.831
				c-1.396,0-5.084-1.428-8.196-3.174l-5.66-3.174l-5.177,4.898c-2.848,2.693-4.206,4.898-3.02,4.898
				c1.186,0.002,2.156,1.167,2.156,2.591s-1.528,2.588-3.396,2.588c-2.358,0-3.084,0.817-2.373,2.671
				c1.272,3.315-3.923,7.483-9.76,7.828c-2.973,0.176-3.375,0.5-1.294,1.044c4.744,1.24,3.651,5.712-1.397,5.712
				c-2.504,0-3.953,0.747-3.349,1.726C206.497,120.5,217.801,113.978,222.631,105.01z M219.995,82.806
				c3.813-2.381,3.339-4.058-0.709-2.504c-1.464,0.562-2.663,1.829-2.663,2.816C216.623,84.254,217.86,84.139,219.995,82.806z
				 M242.079,79.98c2.606,1.574,4.871,2.933,5.031,3.02c0.964,0.523,5.75-2.159,5.75-3.222c0-1.437-9.903-12.15-11.231-12.15
				c-0.467,0-0.848,1.553-0.848,3.451c0,1.898-0.777,3.451-1.726,3.451C235.872,74.53,237.293,77.093,242.079,79.98z M264.508,81.968
				c1.659,0.434,3.407,0.867,3.882,0.963c0.474,0.095,2.027-0.579,3.451-1.499c1.726-1.116,1.869-1.682,0.432-1.7
				c-1.187-0.014-2.157-1.967-2.157-4.34c0-4.596-3.134-5.668-6.559-2.244C260.513,76.194,261.038,81.062,264.508,81.968z
				 M257.489,67.951c0.498-1.246,0.438-2.734-0.137-3.307c-0.573-0.574-0.98,0.446-0.906,2.265
				C256.53,68.918,256.937,69.328,257.489,67.951z">
				<title>Troms</title>
			</path>
			<path class="rg3" data-target="nordlandMap" d="M191.069,185.397c-5.325-0.248-5.642,0.043-4.703,4.317c0.802,3.645,0.204,4.935-2.918,6.305
				c-3.045,1.335-4.044,3.366-4.456,9.055c-0.688,9.497-4.671,9.814-6.163,0.49c-0.853-5.33-1.702-6.61-3.845-5.788
				c-1.513,0.581-3.343,0.099-4.066-1.072c-0.725-1.171-2.976-1.866-5.004-1.546c-3.539,0.559-3.478,0.805,1.489,6.097
				c2.848,3.033,5.179,6.722,5.179,8.196c0,5.007-6.22,2.71-11.317-4.179c-5.898-7.971-7.509-8.639-6.361-2.63
				c0.453,2.373,1.601,4.314,2.551,4.314c0.949,0,1.319,1.554,0.822,3.451c-0.718,2.745-0.052,3.451,3.25,3.451
				c2.54,0,4.152,1.005,4.152,2.588c0,1.424-0.814,2.588-1.808,2.588s-3.608,1.941-5.807,4.314c-2.197,2.373-4.779,4.313-5.736,4.313
				c-2.258,0-4.245-12.507-2.949-18.58c0.962-4.516,0.89-4.574-1.7-1.365c-1.489,1.842-2.706,3.978-2.706,4.745
				c0,2.073-4.791,1.692-5.5-0.437c-0.423-1.267-2.199-1.204-5.751,0.206c-3.453,1.368-4.291,2.299-2.553,2.833
				c1.424,0.437,3.753,1.236,5.177,1.776c1.424,0.541,4.336,0.811,6.471,0.602c2.841-0.278,3.883,0.533,3.883,3.021
				c0,2.721-1.466,3.566-7.333,4.227c-4.034,0.455-9.081,1.4-11.216,2.101c-2.978,0.978-3.882,0.607-3.882-1.585
				c0-4.896-9.467,6.165-9.663,11.289l-0.173,4.518l6.086-4.13c11.144-7.562,17.554-7.378,17.554,0.504
				c0,3.662-0.743,4.293-4.745,4.029c-8.609-0.568-9.371-0.198-8.08,3.935c1.668,5.349,4.12,6.586,10.668,5.388
				c4.535-0.83,5.608-0.464,5.608,1.915c0,1.619-1.545,3.347-3.434,3.84c-2.636,0.689-3.195,1.857-2.401,5.015
				c1.539,6.133-4.725,5.429-8.495-0.955c-1.648-2.79-4.533-5.56-6.412-6.156c-1.879-0.597-3.416-2.124-3.416-3.394
				c0-1.843-0.854-1.907-4.219-0.318c-3.96,1.869-4.013,2.068-0.863,3.233c4.454,1.648,4.492,8.255,0.049,8.255
				c-1.818,0-3.76-0.971-4.314-2.157c-0.806-1.726-1.208-1.726-2.014,0c-1.5,3.214-7.25,2.606-8.156-0.863
				c-0.626-2.397-0.831-2.264-0.989,0.652c-0.111,2.019,0.77,4.435,1.956,5.37c3.428,2.7,11.334,4.079,12.505,2.181
				c1.704-2.754,5.754-2.02,9.496,1.719c1.897,1.898,5.003,3.451,6.902,3.451c2.318,0,3.451,1.151,3.451,3.506
				c0,4.96-3.929,5.857-10.584,2.415c-3.146-1.627-9.816-3.017-14.824-3.09c-5.006-0.072-9.103-0.784-9.103-1.582
				c0-0.799-0.777-0.973-1.726-0.386c-3.213,1.987-1.749,4.04,4.314,6.04c10.104,3.335,7.608,6.506-5.177,6.58
				c-8.589,0.05-11.216-0.512-11.216-2.395c0-1.353-0.705-2.459-1.564-2.459c-0.861,0-1.178,1.479-0.706,3.285
				c0.593,2.266-0.259,3.64-2.749,4.429c-3.006,0.955-3.298,1.724-1.75,4.616c1.022,1.908,1.434,4.574,0.917,5.923
				c-0.518,1.35-0.19,2.454,0.729,2.454c0.918,0,1.672,1.165,1.672,2.588c0,1.611-1.629,2.588-4.314,2.588
				c-3.643,0-4.314-0.805-4.314-5.177c0-6.873-3.043-6.576-6.036,0.589c-4.049,9.69-3.926,10.643,1.291,10.054
				c3.881-0.439,4.745,0.144,4.745,3.2c0,2.285-1.341,4.086-3.451,4.638c-1.899,0.496-3.451,1.588-3.451,2.427
				c0,0.838-1.164,1.524-2.588,1.524c-1.424,0-2.588-1.119-2.588-2.486s-0.807-2.985-1.795-3.595
				c-1.161-0.718-1.405,0.446-0.689,3.298c0.767,3.052,0.16,5.353-1.97,7.479c-2.949,2.945-2.762,3.118,4.572,4.237
				c4.206,0.641,11.336,1.223,15.843,1.294c6.079,0.094,8.197,0.796,8.197,2.716c0,1.869-1.918,2.588-6.902,2.588
				s-6.902,0.72-6.902,2.588c0,1.424-1.164,2.588-2.588,2.588c-1.424,0-2.588-1.145-2.588-2.544c0-1.936-1.343-2.295-5.608-1.498
				c-3.085,0.576-6.346,1.722-7.248,2.545c-0.901,0.824-3.123,1.497-4.938,1.497c-2.875,0-3.143-0.828-2.088-6.446
				c1.176-6.272,1.119-6.366-2.101-3.451c-1.82,1.647-4.22,2.995-5.332,2.995c-1.111,0-2.021,1.422-2.021,3.16
				c0,1.738-1.957,4.207-4.348,5.486c-2.824,1.513-3.652,2.756-2.361,3.554c1.242,0.768,1.616,3.723,1.001,7.887
				c-0.9,6.074-0.819,6.255,0.915,2.063c1.046-2.527,3.717-5.422,5.935-6.434c2.219-1.01,4.034-2.63,4.034-3.6
				c0-3.701,6.139-1.522,8.196,2.909c4.064,8.752,1.225,14.964-3.738,8.176c-4.245-5.804-9.558,0.685-9.612,11.741
				c-0.015,3.058-0.945,4.746-2.612,4.746c-1.424,0-2.588-1.165-2.588-2.588c0-2.985-2.713-3.453-4.381-0.753
				c-0.624,1.009-0.087,3.144,1.193,4.745c4.874,6.099,6.656,10.867,5.617,15.01c-1.119,4.457-5.879,6.052-5.879,1.97
				c0-2.73-4.819-12.783-6.68-13.932c-0.706-0.436-1.284,3.042-1.284,7.729c0,6.418-0.827,9.149-3.352,11.059
				c-3.18,2.404-3.075,2.537,2.041,2.589c4.663,0.048,5.541,0.798,6.491,5.55c1.169,5.848-0.694,8.236-6.462,8.283
				c-2.614,0.021-3.006-0.852-2.126-4.719l1.082-4.746l-4.449,4.961l-4.447,4.961l5.081,3.09c2.795,1.699,6.917,3.438,9.162,3.863
				c7.662,1.453,8.555,1.24,12.866-3.07c3.921-3.921,5.642-4.313,18.902-4.313c8.575,0,14.589,0.711,14.589,1.726
				c0,0.949,1.921,1.726,4.27,1.726c2.998,0,5.065-1.54,6.946-5.177c1.473-2.848,3.333-5.177,4.135-5.177
				c0.802,0,1.972-4.853,2.598-10.784c0.629-5.932,1.875-14.667,2.774-19.413c0.896-4.746,2.106-13.943,2.688-20.438l1.057-11.81
				l5.813,1.09c4.351,0.816,7.991-0.013,14.467-3.294c8.095-4.102,8.545-4.67,6.973-8.805c-2.282-6-2.111-9.361,0.477-9.43
				c3.849-0.102,9.46-6.05,13.904-14.739c2.392-4.674,7.47-11.52,11.289-15.211c8.965-8.671,10.441-16.122,5.487-27.68
				c-4.08-9.517-3.407-14.002,2.312-15.438c2.952-0.741,5.155-3.976,8.634-12.682c3.758-9.401,6.314-12.953,13.07-18.158
				c7.831-6.033,13.896-8.266,13.896-5.117c0,0.744,2.135,2.606,4.745,4.138c3.694,2.167,5.17,2.321,6.668,0.694
				c3.935-4.273,5.396-9.085,6.331-20.854C201.026,189.922,199.13,185.771,191.069,185.397z M6.782,375.332
				c1.468-3.823,1.356-4.173-1.33-4.173c-2.927,0-6.641,4.212-5.085,5.767C2.394,378.952,5.709,378.128,6.782,375.332z
				 M49.14,236.565c1.955,0,3.554-0.776,3.554-1.726c0-0.949-1.119-1.726-2.487-1.726c-1.367,0-2.966,0.777-3.552,1.726
				C46.069,235.79,47.187,236.565,49.14,236.565z M60.444,221.898c1.355-1.897,3.193-4.111,4.086-4.917
				c0.893-0.807,3.254-2.942,5.246-4.745c5.446-4.928,4.356-7.353-1.712-3.808c-5.257,3.071-10.246,10.294-10.139,14.679
				C57.957,224.414,59.007,223.91,60.444,221.898z M79.749,208.622c8.894-4.333,10.908-5.743,10.908-7.635
				c0-1.216,1.358-3.003,3.02-3.97c2.582-1.503,2.331-1.766-1.726-1.811c-2.61-0.03-4.745,0.772-4.745,1.781
				c0,1.009-1.748,1.592-3.882,1.294c-3.278-0.456-3.969,0.363-4.437,5.246C78.581,206.709,78.97,209.001,79.749,208.622z
				 M104.324,201.477c1.498-1.267,5.32-3.333,8.491-4.589c4.872-1.93,6.007-1.908,7.308,0.147c1.299,2.052,1.539,2.028,1.539-0.157
				c0-4.434-2.315-6.08-8.525-6.06c-5.906,0.02-15.579,6.959-15.579,11.178C97.559,204.491,101.08,204.22,104.324,201.477z
				 M135.521,164.955c-0.949,0.586-1.726,3.758-1.726,7.047c0,4.791-0.858,6.306-4.314,7.62c-2.373,0.902-4.314,1.932-4.314,2.288
				c0,1.982,4.225,12.726,5.785,14.713c1.49,1.897,2.442,1.583,5.079-1.675c1.985-2.451,2.516-4.251,1.368-4.635
				c-2.974-0.991-2.331-10.692,0.709-10.692c1.55,0,2.588-1.591,2.588-3.969c0-2.183,0.713-4.707,1.584-5.608
				c0.873-0.901,1.843-4.357,2.157-7.679c0.489-5.157,0.005-6.119-3.31-6.59c-4.824-0.685-5.171-5.488-0.397-5.488
				c2.541,0,4.577-2.452,7.517-9.059c2.218-4.982,3.709-9.429,3.313-9.881c-1.458-1.67-19.468,21.018-19.485,24.548
				c-0.003,0.712,1.158,1.294,2.582,1.294C137.543,157.19,138.22,163.287,135.521,164.955z M119.991,171.857
				c0,1.424-0.885,2.588-1.967,2.588c-2.359,0-6.53,5.175-6.607,8.196c-0.03,1.187,1.111,2.157,2.535,2.157
				c1.587,0,2.588-1.614,2.588-4.176c0-3.238,1.163-4.433,5.177-5.314c4.359-0.957,5.208-2,5.38-6.607
				c0.113-3.01,0.019-6.248-0.209-7.197c-0.229-0.949-0.514-3.859-0.637-6.466c-0.222-4.776-2.809-6.876-2.809-2.281
				c0,1.357-1.748,2.805-3.883,3.216l-3.882,0.748l3.882,0.235c4.088,0.247,4.904,2.849,2.225,7.086
				c-1.37,2.167-2.521,2.207-7.868,0.273c-3.444-1.246-6.489-2-6.767-1.675c-0.278,0.325-1.015,3.696-1.636,7.492l-1.131,6.902
				l3.336-3.883C111.538,168.705,119.991,167.813,119.991,171.857z">
				<title>Nordland</title>
			</path>
		</g>
</svg>
