<svg version="1.1" id="svg4618" xmlns:svg="http://www.w3.org/2000/svg" xmlns="http://www.w3.org/2000/svg" xmlns:xlink="http://www.w3.org/1999/xlink" x="0px" y="0px" width="520px" height="410px" viewBox="0 0 520 410" enable-background="new 0 0 520 410" xml:space="preserve">
		<g id="layer1" transform="translate(-43.65184,-368.1553)">
			<path id="path4814" data-url="/?s=+&amp;mu%5B%5D=Bardu" d="M358.717,773.033c-7.212-2.868-19.012-7.506-26.223-10.309
				c-7.211-2.805-17.321-6.805-22.468-8.892c-8.947-3.629-9.664-3.768-16.389-3.183c-3.868,0.337-10.289,0.87-14.268,1.187
				l-7.237,0.576l-4.938-4.135c-2.716-2.273-6.505-5.294-8.419-6.712l-3.482-2.578l-9.5,4.768c-5.224,2.621-9.994,4.577-10.599,4.345
				c-0.604-0.231-3.087-3.642-5.516-7.577c-3.678-5.961-4.416-7.917-4.416-11.713c0-3.188,0.422-4.72,1.405-5.096
				c2.225-0.854,1.938-11.064-0.371-13.153c-0.976-0.884-1.963-2.891-2.193-4.463c-0.354-2.409,0.032-3.122,2.478-4.569
				c4.744-2.808,4.975-3.251,5.687-10.843c0.638-6.81,0.547-7.398-1.378-8.959l-2.061-1.669l2.235-0.85
				c3.636-1.382,5.073-3.658,3.698-5.861c-0.934-1.494-0.838-3.736,0.492-11.601l1.649-9.746l5.912-4.713
				c4.496-3.583,6.678-4.711,9.109-4.711c1.757,0,3.457,0.421,3.775,0.936c0.319,0.515,1.397,0.937,2.396,0.937
				c1.315,0,1.818-0.648,1.818-2.341c0-1.685,0.503-2.342,1.798-2.342c1.984,0,2.592,3.703,3.235,19.716
				c0.414,10.317,2.58,14.44,5.861,11.158c1.565-1.564,4.233-0.025,3.571,2.061c-0.592,1.868,1.553,5.966,4.194,8.009
				c0.812,0.627,3.056,1.153,4.987,1.17c3.695,0.032,4.211,0.81,2.427,3.665c-1.936,3.101-0.428,4.577,4.675,4.577
				c5.657,0,6.398,0.404,7.168,3.907c0.886,4.035,2.52,4.969,7.414,4.233c2.987-0.447,4.409-1.16,4.804-2.407
				c0.839-2.642,1.6-2.131,4.183,2.8c2.823,5.393,27.604,29.044,35.118,33.519c4.563,2.719,5.925,3.029,15.976,3.647
				c7.24,0.446,11.5,1.126,12.49,1.99c4.188,3.658,11.945,8.718,13.363,8.718c4.258,0,3.136,2.487-7.55,16.74
				c-3.621,4.829-7.053,10.201-7.627,11.94c-0.648,1.969-1.633,3.137-2.608,3.099C372.533,778.275,365.928,775.901,358.717,773.033z">
				<title>Bardu</title>
			</path>
			<path id="path4808" data-url="/?s=+&amp;mu%5B%5D=Skånland" d="M116.661,755.993c-1.377-4.175-0.556-6.792,1.326-4.218c1.659,2.268,3.885,1.077,4.591-2.453
				c0.707-3.538,0.178-4.666-2.191-4.666c-2.267,0-2.712-2.354-1.327-7.023c2.412-8.137,3.371-9.333,7.167-8.946
				c1.046,0.106,1.639-0.479,1.639-1.621c0-3.231,6.797-7.203,10.666-6.233c1.533,0.387,2.764-0.15,4.395-1.91
				c2.778-2.997,7.153-5.443,8.38-4.686c0.5,0.31,0.909,1.566,0.909,2.795c0,1.228,0.769,2.784,1.707,3.457
				c0.938,0.673,2.309,2.609,3.044,4.305c1.138,2.622,1.754,3.041,4.138,2.81c2.929-0.284,4.766-3.55,1.998-3.55
				c-2.445,0-6.115-5.741-5.546-8.677c0.583-3.007,1.416-3.722,3.431-2.948c1.05,0.403,1.296,1.321,0.894,3.336
				c-0.459,2.297-0.209,2.87,1.445,3.301c1.1,0.289,2.001,1.106,2.001,1.819c0,0.888,1.181,1.296,3.746,1.296
				c3.04,0,3.746,0.332,3.746,1.759c0,0.967,0.632,2.282,1.405,2.924c0.772,0.641,1.405,1.746,1.405,2.455
				c0,1.571,1.335,1.645,3.997,0.219c1.502-0.802,2.09-0.802,2.357,0c0.197,0.59,0.946,1.072,1.667,1.072
				c0.72,0,1.569,1.039,1.888,2.308s1.38,2.563,2.359,2.872c2.936,0.933,2.063,2.143-3.614,5.009
				c-9.568,4.829-16.462,6.028-27.99,4.867c-16.948-1.706-16.047-1.921-22.276,5.313c-6.3,7.316-8.178,8.584-12.789,8.629
				C118.139,759.636,117.767,759.34,116.661,755.993L116.661,755.993z">
				<title>Skånland</title>
			</path>
			<path id="path4804" data-url="/?s=+&amp;mu%5B%5D=Gratangen" d="M190.613,736.328c0-0.501-0.797-1.164-1.772-1.475c-2.133-0.676-3.301-4.354-1.705-5.368
				c0.879-0.558,0.872-0.724-0.035-0.735c-0.7-0.009-1.227-1.425-1.311-3.525c-0.124-3.11-0.182-3.19-0.509-0.703
				c-0.202,1.546-0.583,3.429-0.845,4.188c-0.419,1.205-0.585,1.207-1.323,0.013c-0.688-1.112-1.371-1.166-3.696-0.289
				c-2.261,0.854-2.852,0.826-2.852-0.133c0-0.664-0.632-1.732-1.405-2.374c-0.773-0.643-1.405-1.956-1.405-2.925
				c0-1.427-0.706-1.757-3.746-1.757c-2.565,0-3.746-0.409-3.746-1.296c0-0.713-0.84-1.516-1.868-1.785
				c-1.561-0.408-1.77-1-1.271-3.62c0.33-1.724,1.327-3.837,2.218-4.699c1.464-1.415,1.88-1.43,4.314-0.158
				c1.565,0.819,3.944,1.209,5.678,0.933c3.546-0.565,4.846,0.681,5.608,5.371c0.47,2.896,0.961,3.42,3.694,3.933
				c4.445,0.833,7.848-0.198,7.848-2.381c0-1.364-0.638-1.773-2.675-1.715c-3.7,0.104-4.816-0.808-4.816-3.937
				c0-4.621-5.323-7.85-9.659-5.861c-1.521,0.697-2.709,0.556-4.623-0.554c-1.417-0.821-2.572-1.718-2.567-1.993
				c0.005-0.275,3.023-3.224,6.707-6.553c6.135-5.544,6.642-5.825,6.02-3.349c-0.465,1.854-0.173,3.646,0.927,5.688
				c1.294,2.404,2.445,3.146,5.913,3.817l4.306,0.833l0.987,5.151l0.987,5.15l4.916,0.134c3.041,0.082,5.551,0.707,6.58,1.639
				c0.915,0.827,2.578,1.505,3.696,1.505c1.526,0,2.033,0.564,2.033,2.266c0,1.245,0.255,2.93,0.568,3.745
				c0.379,0.987,0.046,1.482-1.003,1.482c-1.117,0-1.487,0.65-1.277,2.249c0.162,1.236-0.396,3.028-1.241,3.98
				c-0.845,0.951-1.69,2.572-1.877,3.604c-0.304,1.666-1.192,1.902-8.058,2.145C193.765,737.127,190.613,736.868,190.613,736.328
				L190.613,736.328z">
				<title>Gratangen</title>
			</path>
			<path id="path4802" data-url="/?s=+&amp;mu%5B%5D=Lavangen" d="M207.47,734.967c0-0.692,0.866-2.043,1.926-3.003c1.318-1.192,1.756-2.421,1.387-3.892
				c-0.398-1.587-0.137-2.147,1-2.147c1.226,0,1.42-0.599,0.955-2.927c-0.321-1.609-0.585-3.717-0.585-4.682
				c0-1.178-0.669-1.757-2.034-1.757c-1.118,0-2.829-0.72-3.802-1.601c-1.169-1.059-3.399-1.613-6.578-1.638l-4.809-0.039l-0.988-5.15
				l-0.988-5.15l-4.268-0.827c-4.711-0.911-7.717-4.461-6.787-8.018c0.629-2.407,0.457-2.426,5.725,0.582
				c2.805,1.603,6.582,2.751,10.442,3.177c4.95,0.547,6.402,1.112,7.996,3.111c4.128,5.179,5.888,1.531,1.83-3.792
				c-2.175-2.85-2.832-3.132-7.306-3.132c-4.512,0-7.163-1.108-7.163-2.996c0-0.413,1.212-0.749,2.694-0.749s3.22-0.633,3.861-1.405
				c1.613-1.944,3.492-1.756,4.682,0.469c0.649,1.213,1.961,1.873,3.727,1.873c1.658,0,3.234,0.729,4.03,1.865
				c0.719,1.026,2.614,2.128,4.21,2.447c2.847,0.569,2.894,0.667,2.388,4.938c-0.499,4.209-0.369,4.5,3.802,8.544
				c3.953,3.829,4.319,4.565,4.319,8.676c0,3.13-0.426,4.656-1.405,5.031c-1.008,0.387-1.405,1.965-1.405,5.591
				c0,2.776-0.104,5.05-0.234,5.051c-0.129,0.001-3.816,0.632-8.195,1.404c-4.377,0.771-8.065,1.402-8.194,1.402
				C207.575,736.226,207.47,735.661,207.47,734.967L207.47,734.967z">
				<title>Lavangen</title>
			</path>
			<path id="path4800" data-url="/?s=+&amp;mu%5B%5D=Målselv" d="M360.312,734.598c-3.466-0.241-6.475-1.247-9.987-3.339
				c-7.544-4.492-32.324-28.136-35.155-33.541c-2.442-4.666-5.074-5.891-6.05-2.816c-0.651,2.052-6.765,3.403-8.581,1.896
				c-0.644-0.533-1.44-2.201-1.77-3.706c-0.761-3.462-1.326-3.781-7.223-4.08c-4.6-0.233-6.662-1.535-4.521-2.858
				c0.542-0.335,0.986-1.638,0.986-2.895c0-2.03-0.407-2.287-3.619-2.287c-2.661,0-4.271-0.653-6.087-2.469
				c-2.561-2.561-2.788-3.16-2.51-6.629c0.199-2.475-3.86-3.954-5.993-2.184c-2.141,1.776-3.415-1.882-3.839-11.021
				c-0.208-4.474-0.633-10.768-0.946-13.987c-0.555-5.714-0.633-5.853-3.303-5.853c-2.292,0-2.735,0.378-2.735,2.341
				c0,2.365-1.275,3.13-2.341,1.405c-0.319-0.517-2.201-0.937-4.183-0.937c-3.18,0-3.543-0.228-3.097-1.936
				c0.357-1.37,0.798-1.644,1.505-0.937c1.505,1.506,4.351,1.198,5.019-0.542c0.348-0.905-0.036-1.999-0.929-2.652
				c-2.331-1.704-3.63-6.108-2.966-10.047c0.583-3.447,0.518-3.554-2.165-3.554c-1.521,0-3.771-0.765-4.999-1.697
				s-4.34-2.935-6.917-4.449l-4.682-2.75l5.151-0.288c2.832-0.159,5.519-0.655,5.97-1.101c0.451-0.448,0.537-2.32,0.192-4.161
				c-0.549-2.922-0.973-3.348-3.333-3.348c-1.932,0-2.883-0.566-3.333-1.983c-0.516-1.625,0.7-3.227,6.726-8.851
				c4.046-3.777,7.883-6.89,8.527-6.914c1.616-0.063,1.836,3.98,0.675,12.362c-0.557,4.015-0.436,4.449,1.234,4.449
				c1.626,0,1.916-0.83,2.381-6.79c0.291-3.734,0.575-9.74,0.632-13.345c0.057-3.605,0.551-6.977,1.099-7.492
				c0.699-0.658,0.811,0.11,0.371,2.578c-0.525,2.952-0.181,4.16,2.148,7.546c1.526,2.216,3.486,4.622,4.355,5.342
				c0.87,0.723,1.948,2.279,2.397,3.459c0.964,2.534,3.353,2.841,3.963,0.507c0.235-0.902,0.477-0.111,0.537,1.758
				c0.098,3.057,1.079,4.295,9.841,12.408c5.353,4.958,10.135,9.013,10.627,9.013s1.275,0.812,1.74,1.804
				c1.106,2.362,22.43,18.8,24.389,18.8c1.177,0,1.386-0.619,0.947-2.81c-0.708-3.538,1.706-3.975,2.585-0.469
				c0.722,2.873,2.491,3.014,4.167,0.331c0.909-1.456,1.453-1.692,1.972-0.852c0.561,0.906,2.008,0.923,6.695,0.076
				c11.649-2.104,12.573-2.142,13.874-0.573c1.789,2.156,3.699,1.824,4.92-0.855c0.587-1.287,1.533-2.341,2.102-2.341
				s2.62-0.852,4.56-1.89l3.524-1.89l5.517,3.746c3.033,2.061,6.485,5.124,7.668,6.806c1.184,1.684,2.588,3.53,3.118,4.103
				c0.533,0.574,2.444,2.857,4.246,5.076c1.803,2.22,4.453,5.405,5.889,7.083c2.606,3.042,2.888,4.213,5.979,24.753
				c0.336,2.228-0.801,8.178-3.488,18.263c-3.516,13.195-4.562,15.841-8.879,22.45c-2.692,4.121-6.179,8.699-7.747,10.176
				c-1.566,1.474-2.627,3.265-2.354,3.979C375.323,735.334,372.547,735.45,360.312,734.598L360.312,734.598z">
				<title>Målselv</title>
			</path>
			<path id="path4794" data-url="/?s=+&amp;mu%5B%5D=Salangen" d="M221.228,705.746c-1.306-1.795-1.554-3.257-1.084-6.392c0.6-4.006,0.564-4.074-2.438-4.675
				c-1.675-0.336-3.634-1.449-4.353-2.476c-0.797-1.136-2.372-1.865-4.031-1.865c-1.765,0-3.076-0.659-3.726-1.873
				c-1.153-2.155-4.874-2.495-6.455-0.59c-1.743,2.101-8.265,2.524-11.397,0.744c-1.507-0.859-2.741-1.808-2.745-2.11
				c-0.018-1.728,10.235-11.336,12.872-12.062c2.866-0.788,4.198,0.081,2.107,1.374c-1.626,1.005-1.014,3.278,0.88,3.278
				c1,0,2.079,0.421,2.397,0.937c0.318,0.515,2.24,0.936,4.269,0.936c2.998,0,3.691-0.333,3.691-1.772
				c0-0.975-0.578-1.995-1.285-2.265c-0.707-0.272-2.236-2.46-3.398-4.861c-1.629-3.363-2.517-4.262-3.867-3.909
				c-1.283,0.336-1.751-0.047-1.751-1.43c0-1.58-0.41-1.783-2.519-1.255c-1.385,0.349-3.597,1.398-4.917,2.335
				c-4.064,2.882-9.618,5.782-10.117,5.283c-0.726-0.726,6.438-8.02,9.407-9.577c2.406-1.264,2.58-1.706,2.081-5.309
				c-0.694-5.011,0.225-6.312,5.086-7.201c3.255-0.595,4.687-0.32,8.309,1.588c2.406,1.27,5.453,3.326,6.769,4.572
				c3.049,2.882,5.408,2.86,8.579-0.079c1.389-1.288,3.625-2.341,4.969-2.341c1.344,0,3.295-0.456,4.335-1.015
				c1.041-0.556,2.089-0.813,2.331-0.571c0.241,0.241-0.292,4.53-1.186,9.53c-1.23,6.887-1.368,9.503-0.571,10.777
				c0.833,1.336,0.707,1.998-0.608,3.188c-0.913,0.825-2.166,1.502-2.786,1.502c-2.12,0-2.234,2.791-0.182,4.452
				c1.851,1.5,1.968,2.185,1.366,8.052c-0.693,6.766-0.907,7.136-5.832,10.055c-2.734,1.621-3.039,2.185-2.502,4.628
				C223.666,708.709,223.427,708.764,221.228,705.746L221.228,705.746z">
				<title>Salangen</title>
			</path>
			<path id="path4796" data-url="/?s=+&amp;mu%5B%5D=Ibestad" d="M137.045,709.817c0.618-0.617,1.124-2.058,1.124-3.201c0-3.213,0.984-5.039,2.715-5.039
				c1.076,0,1.932-1.319,2.686-4.139c0.609-2.276,2.243-6.536,3.63-9.467l2.523-5.328l3.354,6.891c2.318,4.763,4.15,7.269,5.93,8.114
				c1.417,0.671,2.576,1.561,2.576,1.979c0,1.801-5.247,5.77-8.789,6.646c-2.121,0.525-5.97,1.791-8.556,2.813
				C138.79,711.236,135.267,711.595,137.045,709.817z M163.532,693.956c-1.586-1.477-1.924-2.55-1.463-4.642
				c0.328-1.497,0.212-2.722-0.257-2.722s-0.855-1.303-0.855-2.893c0-1.591-0.386-3.171-0.858-3.513
				c-2.199-1.59-3.978-6.687-3.225-9.237l0.773-2.62l1.642,3.98c1.104,2.678,2.214,3.98,3.392,3.98c0.963,0,2.231,1.054,2.818,2.341
				c0.587,1.288,1.42,2.341,1.853,2.341c0.976,0,1.042-1.603,0.084-2.028c-0.387-0.171-1.645-2.044-2.796-4.161
				c-1.99-3.659-2.012-3.92-0.446-5.337c1.125-1.018,2.083-1.213,3.029-0.614c0.761,0.48,2.738,0.882,4.395,0.889
				c3.06,0.015,5.672,2.771,4.469,4.716c-0.312,0.505-0.182,0.918,0.289,0.918c0.47,0,1.943,1.008,3.274,2.241l2.418,2.241
				l-3.128,3.656c-1.72,2.01-5.426,5.617-8.236,8.018l-5.109,4.364L163.532,693.956L163.532,693.956z">
				<title>Ibestad</title>
			</path>
			<path id="path4812" data-url="/?s=+&amp;mu%5B%5D=Kvæfjord" d="M45.141,772.125c-1.127-1.127-0.652-4.741,0.781-5.93c1.917-1.592,1.889-10.088-0.04-12.219
				c-0.795-0.879-1.696-3.147-2.004-5.045c-0.478-2.941-0.278-3.521,1.366-3.951c2.455-0.642,3.291-3.951,1.961-7.763
				c-0.916-2.627-0.779-3.25,1.161-5.315c1.387-1.476,2.856-2.165,3.985-1.871c2.834,0.741,5.21-2.921,5.247-8.086
				c0.027-3.882-0.216-4.449-1.904-4.449c-3.868,0-5.557-1.717-5.557-5.649c0-2.938,0.695-4.48,3.339-7.407
				c2.922-3.233,3.202-3.949,2.244-5.741c-0.953-1.781-0.762-2.313,1.468-4.092c2.244-1.789,2.558-2.682,2.518-7.143
				c-0.025-2.804,0.492-6.104,1.149-7.331c0.907-1.694,0.946-2.894,0.162-4.969c-0.858-2.272-0.716-3.281,0.833-5.953
				c2.004-3.456,3.911-3.939,3.469-0.882c-0.427,2.957,0.593,5.879,2.755,7.893c2.096,1.953,2.093,1.985-1.083,9.901
				c-0.414,1.03-1.422,4.777-2.242,8.326c-1.056,4.57-2.449,7.623-4.773,10.459c-3.372,4.116-4.217,6.97-2.062,6.97
				c1.403,0,10.522-8.684,11.98-11.407c0.779-1.455,1.249-1.6,2.317-0.714c1.963,1.629,1.668,8.704-0.534,12.812
				c-1.03,1.923-1.891,4.345-1.912,5.382c-0.073,3.521-3.284,7.99-7.952,11.068l-4.652,3.066l0.297,7.228
				c0.241,5.882,0.024,7.331-1.171,7.789c-0.808,0.311-1.468,1.15-1.468,1.867c0,0.719-0.421,1.306-0.937,1.306
				s-0.937,0.844-0.937,1.873c0,2.744,1.739,2.297,5.29-1.359c3.329-3.427,3.75-5.645,2.278-11.986
				c-0.497-2.14-0.473-3.512,0.062-3.512c0.482,0,1.387-0.43,2.009-0.954c4.816-4.066,6.838-5.6,7.389-5.601
				c0.351-0.001,1.57-1.309,2.708-2.907c1.716-2.409,1.847-3.063,0.767-3.817c-1.02-0.713-1.045-1.015-0.116-1.392
				c2.38-0.964,3.806-3.168,4.427-6.846c0.786-4.649,1.755-5.309,4.84-3.287c1.566,1.027,3.37,1.389,5.147,1.032
				c3.443-0.687,6.406,1.098,6.406,3.861c0,1.257,0.571,2.116,1.405,2.116c0.946,0,1.405-0.947,1.405-2.908
				c0-3.732-4.621-9.655-9.459-12.124c-2.262-1.153-4.287-3.168-5.382-5.35c-1.632-3.251-1.649-3.671-0.247-5.938
				c0.829-1.343,2.917-3.624,4.636-5.07c2.47-2.078,3.293-2.364,3.916-1.357c0.442,0.717,0.378,2.037-0.146,3.018
				c-1.258,2.353-0.099,7.255,1.715,7.255c0.792,0,3.076,1.79,5.076,3.98c3.529,3.859,3.639,4.183,3.639,10.798
				c0,5.142,0.339,6.949,1.379,7.349c0.758,0.292,1.643,1.939,1.967,3.663c0.525,2.799,0.202,3.465-3.018,6.23
				c-1.984,1.705-4.835,4.295-6.338,5.758s-4.173,2.895-5.935,3.179c-1.761,0.286-3.422,1.091-3.69,1.789
				c-0.269,0.698-1.48,1.27-2.694,1.27c-1.496,0-2.964,1.114-4.557,3.456l-2.348,3.457l-1.978-4.471
				c-1.087-2.459-2.258-4.204-2.602-3.876c-0.343,0.327-1.467,3.826-2.497,7.775c-1.704,6.529-2.127,7.255-4.682,7.989
				c-3.021,0.87-9.941,9.413-12.832,15.841C49.389,772.535,46.843,773.829,45.141,772.125L45.141,772.125z M81.041,730.685
				c0-0.986-0.526-2.009-1.17-2.27c-0.883-0.357-0.825-0.727,0.234-1.5c1.23-0.896,1.201-1.145-0.234-1.99
				c-0.902-0.532-1.639-1.577-1.639-2.324s-0.421-1.357-0.936-1.357c-1.241,0-1.209,4.402,0.038,5.174
				c0.536,0.331,0.72,1.405,0.408,2.388c-0.312,0.981-0.304,2.211,0.017,2.73C78.761,733.159,81.041,732.569,81.041,730.685z
				 M80.531,704.896c-1.264-1.264-2.299-2.833-2.299-3.486s0.686-0.207,1.525,0.989c0.839,1.198,2.841,2.751,4.448,3.45
				c2.561,1.114,2.657,1.276,0.774,1.31C83.796,707.178,81.795,706.16,80.531,704.896z M71.148,689.928
				c0.359-1.514,1.208-3.2,1.888-3.747c0.678-0.547,1.46-1.626,1.737-2.398c0.403-1.129,0.517-1.092,0.576,0.191
				c0.041,0.878-1.035,3.197-2.39,5.151C70.575,692.565,70.516,692.59,71.148,689.928z">
				<title>Kvæfjord</title>
			</path>
			<path id="path2944" data-url="/?s=+&amp;mu%5B%5D=Harstad" d="M95.979,657.958c1.69-0.722,5.756,1.983,8.808,4.648c3.467,2.769,4.628-0.069,6.608,2.158
				c1.251,1.408,0.938,1.686,3.164,2.166c3.295,0.188,0.751-2.852,2.583-3.802c1.221-0.632,0.894,3.702,2.627,5.675
				c0.699,0.793-0.555,1.176-1.218,2.504c-1.254,4.443,2.298,4.785,1.047,6.166c-1.728,1.91-2.442,3.332-6.118,1.509
				c-4.299-2.132-3.082,2.215-9.603-4.142c-4.545-4.78-3.086-5.881-5.165-7.65c-2.094-1.66-3.604-1.378-4.626-2.826
				C93.137,663.016,94.02,658.994,95.979,657.958L95.979,657.958z
				M107.463,745.561c-0.633-1.013-1.917-1.842-2.853-1.842c-0.937,0-2.724-1.1-3.973-2.441
				c-1.249-1.343-3.218-2.807-4.377-3.254c-3.313-1.279-2.533-3.044,3.529-7.979c5.552-4.519,5.631-4.651,5.25-8.711
				c-0.233-2.491-0.981-4.454-1.89-4.963c-1.163-0.65-1.504-2.366-1.504-7.585c0-6.526-0.117-6.871-3.638-10.724
				c-2.001-2.188-4.269-3.979-5.042-3.979c-1.822,0-2.733-3.542-1.502-5.843c0.529-0.988,0.731-2.395,0.45-3.127
				c-0.282-0.732-0.187-1.331,0.21-1.331c0.396,0,1.611,2.107,2.699,4.683c1.476,3.489,2.476,4.683,3.933,4.683
				c1.467,0,1.954-0.593,1.954-2.379c0-3.352-3.196-9.221-6.034-11.08c-1.77-1.159-2.386-2.359-2.358-4.591l0.037-3.022l1.293,2.973
				c0.711,1.636,2.485,3.718,3.943,4.628c1.458,0.91,3.859,2.839,5.336,4.285c2.795,2.736,5.274,3.445,5.274,1.507
				c0-2.256,1.732,0.687,2.035,3.457c0.381,3.481,3.027,4.214,5.388,1.491c0.932-1.073,2.034-1.951,2.449-1.951
				c0.417,0-0.102,0.947-1.15,2.106c-1.048,1.159-2.403,3.582-3.01,5.386c-0.984,2.923-0.897,3.445,0.806,4.832
				c2.331,1.897,2.652,8.37,0.506,10.151c-1.796,1.489-1.828,4.684-0.047,4.684c0.748,0,1.788-0.738,2.313-1.64
				s0.967-1.169,0.983-0.594c0.015,0.573-0.815,2.115-1.845,3.425c-2.463,3.131-2.363,4.244,0.495,5.546
				c1.302,0.593,2.021,1.321,1.595,1.618c-1.65,1.154-5.836,12.553-5.836,15.891c0,2.454-0.647,4.129-2.135,5.527
				C108.637,747.381,108.599,747.383,107.463,745.561L107.463,745.561z M122.248,711.878c0-0.517,0.421-0.938,0.937-0.938
				s0.937,0.421,0.937,0.938c0,0.513-0.421,0.936-0.937,0.936S122.248,712.391,122.248,711.878z M124.121,682.492
				c0-0.934,0.782-1.52,2.029-1.52c1.116,0,1.854,0.119,1.639,0.266c-0.214,0.145-1.128,0.829-2.029,1.519
				C124.357,683.831,124.121,683.792,124.121,682.492z M124.121,677.335c0-0.454,0.867-1.054,1.926-1.33
				c1.582-0.413,1.728-0.266,0.822,0.827C125.633,678.321,124.121,678.598,124.121,677.335z
				M122.827,666.408c-0.308-0.8,0.123-2.492,0.955-3.763c1.265-1.932,1.762-2.12,3.033-1.152
				c0.837,0.636,1.698,1.276,1.915,1.425c0.524,0.357-3.809,4.944-4.671,4.944C123.688,667.862,123.133,667.208,122.827,666.408
				L122.827,666.408z M106.737,656.53c-0.338-0.546,0.275-1.615,1.362-2.375c1.085-0.761,1.975-1.992,1.975-2.735
				c0-0.744,0.421-1.352,0.936-1.352c0.515,0,0.937,0.792,0.937,1.759s0.632,2.282,1.404,2.925c2.073,1.721,1.708,3.014-0.468,1.654
				c-1.479-0.924-2.259-0.929-3.703-0.027C107.918,657.167,107.16,657.214,106.737,656.53z M110.542,646.322
				c0.318-0.516,1.21-0.936,1.983-0.936c0.772,0,1.144,0.42,0.826,0.936c-0.318,0.516-1.211,0.937-1.983,0.937
				C110.594,647.258,110.223,646.837,110.542,646.322z">
				<title>Harstad</title>
			</path>
			<path id="path4778" data-url="/?s=+&amp;mu%5B%5D=Dyrøy" d="M182.513,669.412c1.066-1.666,1.491-3.507,1.137-4.916c-0.505-2.011-0.259-2.253,2.291-2.253
				c1.606,0,3.081-0.584,3.368-1.331c0.854-2.226-1.374-5.225-3.88-5.225c-1.27,0-2.308-0.422-2.308-0.936
				c0-0.517,0.421-0.938,0.936-0.938c0.515,0,0.937-0.528,0.937-1.174s1.264-2.367,2.809-3.825c1.545-1.459,2.81-3.184,2.81-3.834
				c0-0.648,1.457-2.681,3.238-4.516c3.899-4.015,5.11-7.662,2.835-8.536c-0.858-0.328-1.942-0.361-2.412-0.072
				c-0.468,0.291-0.851,0.133-0.851-0.35c0-1.792,3.079-3.342,6.403-3.224c1.886,0.067,5.283-0.761,7.547-1.84
				c3.895-1.855,4.182-1.873,5.314-0.324c0.978,1.338,0.955,2.442-0.126,6.004c-1.887,6.222-0.927,9.947,3.472,13.483
				c2.01,1.615,4.73,4.346,6.043,6.067l2.389,3.133l-2.177,1.813c-2.844,2.371-3.772,2.322-6.264-0.331
				c-1.14-1.213-4.284-3.324-6.985-4.691c-4.346-2.198-5.435-2.387-9.446-1.638c-5.467,1.021-6.374,2.167-5.855,7.4
				c0.359,3.619,0.144,4.144-2.189,5.351c-1.423,0.736-3.596,2.513-4.829,3.946c-1.233,1.436-3.066,3.242-4.076,4.015
				C180.839,672.054,180.838,672.036,182.513,669.412L182.513,669.412z M174.566,655.598c-0.63-1.883-0.41-9.472,0.35-12.086
				c2.031-6.986,2.279-7.271,7.779-8.869c2.92-0.849,5.546-1.308,5.833-1.02c0.288,0.288,0.072,0.523-0.481,0.523
				c-0.553,0-0.785,0.844-0.515,1.874c0.27,1.029,0.065,1.872-0.455,1.872s-1.221,1.105-1.56,2.456
				c-0.649,2.588-2.619,5.037-4.053,5.037c-0.469,0-1.408,1.678-2.085,3.731C178.337,652.276,174.97,656.808,174.566,655.598
				L174.566,655.598z">
				<title>Dyrøy</title>
			</path>
			<path id="path4770" data-url="/?s=+&amp;mu%5B%5D=Sørreisa" d="M219.571,647.427c-3.389-3.44-6.401-7.192-6.695-8.336c-0.294-1.146,0.082-4.179,0.833-6.745
				c1.046-3.571,1.118-5.127,0.308-6.642c-1.414-2.644,0.104-4.427,4.466-5.244c2.527-0.475,3.605-0.254,4.458,0.911
				c1.576,2.156,4.709,1.913,6.997-0.542c2.707-2.906,2.042-4.976-1.549-4.819c-2.401,0.104-2.815-0.175-2.433-1.638
				c0.261-0.997-0.022-1.765-0.649-1.765c-0.611,0-0.976-0.924-0.811-2.053c0.212-1.457,1.248-2.292,3.577-2.882
				c1.802-0.458,3.678-1.22,4.167-1.694c0.489-0.476,3.078-0.863,5.752-0.863c4.429,0,4.915,0.212,5.46,2.384
				c0.885,3.528,0.023,4.172-5.602,4.172c-6.543,0-6.761,1.772-0.646,5.288c2.446,1.405,5.453,3.319,6.682,4.252
				c1.228,0.935,3.449,1.698,4.934,1.698c2.415,0,2.64,0.248,2.113,2.347c-0.868,3.455,0.368,8.646,2.54,10.669
				c1.329,1.238,1.573,1.972,0.812,2.443c-0.599,0.37-1.558,0.203-2.131-0.369c-1.72-1.719-3.009-1.196-4.085,1.657
				c-1.127,2.986-10.264,10.684-15.193,12.801C227.708,654.678,226.12,654.077,219.571,647.427L219.571,647.427z">
				<title>Sørreisa</title>
			</path>
			<path id="path4768" data-url="/?s=+&amp;mu%5B%5D=Tranøy" d="M151.65,651.366c-1.741-0.718-0.359-5.044,1.611-5.044c1.171,0,1.765-0.665,1.765-1.981
				c0-1.54-0.431-1.87-1.927-1.479c-1.581,0.413-1.729,0.265-0.821-0.828c0.607-0.732,2.078-1.331,3.268-1.331
				c1.368,0,2.391-0.715,2.781-1.943c0.926-2.918-0.067-3.232-5.114-1.618c-3,0.959-4.907,1.149-5.507,0.549
				c-1.208-1.208-4.854-0.021-4.854,1.579c0,1.362-4.674,3.308-7.95,3.308c-2.577,0-5.29-6.803-3.447-8.645
				c0.603-0.604,1.096-2.139,1.096-3.414v-2.317l2.167,2.037c1.192,1.12,2.911,2.037,3.82,2.037c1.334,0,1.539-0.521,1.06-2.701
				c-0.525-2.388-0.264-2.815,2.247-3.689c1.749-0.61,3.048-0.652,3.384-0.11c0.776,1.259,5.469,1.09,6.801-0.242
				c1.551-1.553,1.41-3.559-0.251-3.559c-0.838,0-1.166-0.549-0.837-1.405c0.298-0.775,1.688-1.404,3.104-1.404
				c2.616,0,5.664-2.479,5.664-4.607c0-0.648,0.913-1.919,2.028-2.822c2.107-1.707,1.999-2.636-0.757-6.434
				c-1.495-2.06-1.474-2.181,0.455-2.685c1.167-0.306,2.02-1.273,2.02-2.293c0-0.969,0.422-1.763,0.937-1.763s0.937-0.978,0.937-2.17
				c0-1.74,0.969-2.559,4.917-4.146c2.705-1.087,6.716-2.257,8.916-2.6c4.537-0.705,6.744-2.461,6.831-5.434
				c0.055-1.912,0.117-1.893,0.983,0.302c0.508,1.287,2,3.901,3.315,5.809c1.441,2.089,2.631,5.439,2.997,8.429
				c0.514,4.209,0.924,5.006,2.713,5.259c1.354,0.192,2.107,0.945,2.107,2.108c0,1.313,0.653,1.807,2.38,1.807
				c3.796,0,6.359,3.004,5.582,6.543c-0.625,2.843-0.79,2.933-4.269,2.346c-3.021-0.511-4.154-0.204-6.85,1.853
				c-2.013,1.535-3.46,2.093-3.839,1.48c-0.333-0.54-1.807-0.982-3.274-0.982c-2.205,0-2.582-0.324-2.176-1.874
				c0.359-1.373,0.023-1.879-1.259-1.901c-1.636-0.025-1.643-0.09-0.109-0.982c0.901-0.524,1.639-1.776,1.639-2.781
				c0-1.424-0.649-1.826-2.94-1.826c-3.135,0-5.409,2.09-5.459,5.019c-0.017,0.958-1.821,3.551-4.01,5.759
				c-2.189,2.209-5.455,6.13-7.258,8.714c-1.803,2.582-4.068,4.916-5.033,5.188c-1.344,0.377-1.617,1.04-1.167,2.833
				c0.323,1.288,0.165,2.603-0.353,2.923c-1.509,0.932-1.128,5.153,0.465,5.153c0.773,0,1.405-0.447,1.405-0.993
				s0.421-0.73,0.936-0.412c1.778,1.1,0.929,3.327-1.639,4.295c-1.417,0.534-3.799,1.576-5.295,2.317
				c-1.496,0.74-2.759,1.314-2.81,1.273C152.725,651.827,152.219,651.601,151.65,651.366L151.65,651.366z M140.115,647.648
				c0.045-1.09,0.266-1.313,0.565-0.565c0.271,0.677,0.238,1.483-0.074,1.795S140.075,648.635,140.115,647.648L140.115,647.648z">
				<title>Tranøy</title>
			</path>
			<path id="path4762" data-url="/?s=+&amp;mu%5B%5D=Balsfjord" d="M307.677,629.322c-5.923-4.631-11.15-9.234-11.616-10.226
				c-0.465-0.993-1.248-1.807-1.74-1.807c-0.492,0-5.274-4.056-10.627-9.012c-8.651-8.012-9.732-9.364-9.732-12.174
				c0-1.74-0.421-3.163-0.937-3.163s-0.937-0.683-0.937-1.516s-1.324-3.023-2.943-4.867l-2.943-3.352l2.241-0.848
				c1.231-0.466,2.972-1.226,3.867-1.688c2.145-1.109,8.307-1.05,10.08,0.097c1.2,0.775,1.166,0.909-0.233,0.922
				c-3.022,0.026-1.755,2.717,1.573,3.341c1.768,0.332,3.44,1.193,3.717,1.916c0.65,1.696,4.217,1.705,4.866,0.011
				c0.275-0.715-0.476-2.321-1.668-3.566c-1.193-1.247-2.589-3.008-3.104-3.912c-0.665-1.171-2.781-1.878-7.288-2.435
				c-8.437-1.043-16.591-5.689-18.105-10.316c-1.542-4.709-6.758-10.57-8.908-10.008c-2.427,0.635-2.783-0.362-1.626-4.552
				c0.809-2.929,0.711-4.087-0.518-6.169c-1.147-1.942-1.24-2.732-0.384-3.262c0.622-0.384,1.298-0.196,1.503,0.418
				c0.416,1.248,7.769,4.834,9.912,4.834c2.998,0,4.342,1.2,4.342,3.876c0,1.506,0.527,2.94,1.172,3.188
				c0.645,0.248,4.122-0.797,7.726-2.319l6.555-2.77l0.744,2.814c0.471,1.783,1.959,3.532,4.058,4.771
				c3.021,1.781,3.263,2.235,2.725,5.098c-0.476,2.539-0.051,3.924,2.217,7.221c3.894,5.661,7.237,6.916,13.248,4.974
				c5.143-1.661,7.119-1.326,9.532,1.613c2.49,3.035,1.994,5.596-2.086,10.758c-3.837,4.852-4.482,7.288-2.777,10.474
				c1.249,2.332,4.987,2.333,6.642,0.001c1.269-1.785,1.357-1.785,6.904-0.014c3.091,0.989,6.568,1.803,7.727,1.81
				c3.552,0.023,2.275-2.212-2.556-4.477c-5.332-2.5-7.145-6.213-6.188-12.672c0.443-2.987,0.132-4.682-1.321-7.186
				c-1.046-1.803-2.352-4.417-2.901-5.808c-1.354-3.425-7.167-4.388-12.822-2.125c-5.477,2.191-7.861,0.61-9.446-6.261
				c-0.917-3.982-1.766-5.392-4.149-6.891c-2.486-1.566-3.044-2.56-3.283-5.854c-0.169-2.346,0.117-3.967,0.703-3.967
				c0.545,0,0.995,0.737,1,1.639c0.011,1.784,5.781,8.207,10.841,12.066c3.535,2.695,6.521,2.415,5.748-0.541
				c-0.487-1.868,1.823-4.557,5.578-6.49c1.621-0.835,2.345-0.749,3.512,0.418c1.813,1.812,1.817,2.06,0.065,3.812
				c-2.307,2.305-1.745,5.581,1.17,6.829c1.417,0.606,3.958,2.976,5.648,5.264c3.207,4.343,5.172,5.16,6.538,2.719
				c0.51-0.91,1.42-1.208,2.468-0.806c1.299,0.498,1.536,1.297,1.093,3.664c-0.52,2.766-0.336,3.072,2.139,3.567
				c2.719,0.544,3.848,2.53,3.875,6.818c0.018,2.703,5.273,9.74,7.276,9.74c2.867,0.002,13.143,5.391,13.684,7.176
				c0.286,0.947,1.205,5.936,2.04,11.086c1.042,6.405,2.053,9.826,3.199,10.825c1.315,1.147,1.446,1.775,0.606,2.926
				c-1.179,1.61-7.895,5.447-9.536,5.447c-0.569,0-1.539,1.105-2.153,2.457c-1.072,2.351-1.198,2.387-2.909,0.838
				c-1.898-1.718-4.54-1.655-15.004,0.359c-3.336,0.644-5.26,0.671-5.463,0.073c-0.537-1.581-2.798-1.004-4.265,1.09l-1.406,2.008
				l-0.622-2.477c-0.465-1.856-1.211-2.475-2.978-2.475c-2.12,0-2.3,0.282-1.795,2.81c0.309,1.544,0.257,2.775-0.117,2.734
				C318.753,637.779,313.601,633.956,307.677,629.322L307.677,629.322z">
				<title>Balsfjord</title>
			</path>
			<path id="path4760" data-url="/?s=+&amp;mu%5B%5D=Storfjord" d="M369.738,629.423c-3.463-2.488-3.824-3.072-2.859-4.615c0.916-1.465,0.766-2.06-0.873-3.473
				c-1.509-1.3-2.34-3.93-3.499-11.068c-0.837-5.151-1.755-10.141-2.042-11.087c-0.54-1.785-10.814-7.174-13.682-7.176
				c-0.899,0-2.911-1.763-4.472-3.918l-2.839-3.918l2.833-1.792c2.364-1.499,2.832-2.4,2.832-5.462c0-2.016,0.392-4.398,0.868-5.292
				c0.478-0.895,1.098-2.365,1.376-3.267c0.279-0.902,2.024-2.364,3.879-3.248c2.349-1.12,3.529-2.399,3.892-4.213
				c0.437-2.18,1-2.607,3.448-2.617c1.61-0.006,5.244-0.633,8.078-1.394c6.138-1.647,5.618-1.594,5.618-0.575
				c0,0.456-2.528,3.455-5.618,6.662c-3.53,3.663-5.62,6.629-5.62,7.974c0,1.178-1.049,4.396-2.331,7.151
				c-2.811,6.036-3.043,9.224-0.673,9.224c1.137,0,2.495-1.782,4.214-5.526c1.396-3.038,2.536-5.828,2.536-6.195
				c0-0.873,6.231-9.579,9.131-12.756c1.462-1.601,2.888-2.303,4.059-1.997c2.958,0.774,4.834-1.51,4.167-5.069
				c-0.438-2.33,0.078-4.452,2.074-8.545c2.556-5.238,2.764-5.418,5.422-4.707c1.521,0.407,3.925,2.069,5.345,3.695
				c2.196,2.517,2.581,3.786,2.581,8.529c0,4.774,0.429,6.17,2.992,9.741c2.537,3.532,3.36,4.086,5.401,3.638
				c1.696-0.373,3.357,0.171,5.618,1.839c2.568,1.895,4.3,2.368,8.669,2.368c4.837,0,5.554,0.246,6.28,2.155
				c0.45,1.184,0.614,3.228,0.362,4.541c-0.379,1.988,0.142,2.74,3.115,4.494c2.753,1.624,3.94,1.878,5.178,1.105
				c1.286-0.803,1.725-0.635,2.193,0.843c0.323,1.016,0.999,1.847,1.502,1.847c0.527,0,0.674,1.297,0.344,3.052
				c-0.697,3.711,4.158,16.735,7.607,20.412c1.234,1.315,2.245,3.152,2.245,4.079c0,1.718-2.727,12.941-3.281,13.505
				c-0.456,0.464-3.606-1.293-15.049-8.393c-5.702-3.538-10.779-6.433-11.28-6.433s-3.048,3.073-5.66,6.83l-4.748,6.832l-15.24,2.114
				c-8.384,1.164-16.343,2.304-17.687,2.533C374.452,632.143,372.483,631.396,369.738,629.423L369.738,629.423z">
				<title>Storfjord</title>
			</path>
			<path id="path4756" data-url="/?s=+&amp;mu%5B%5D=Torsken" d="M144.022,613.283c-3.219-0.515-5.854-1.299-5.854-1.743c0-0.442,0.422-0.805,0.937-0.805
				c1.505,0,1.078-2.031-0.702-3.333c-1.485-1.086-1.377-1.254,1.17-1.809c1.545-0.337,3.651-0.947,4.682-1.357
				c1.289-0.514,2.688-0.172,4.487,1.094c4.71,3.318,10.095-0.407,5.774-3.993c-1.274-1.059-1.108-1.547,1.405-4.14
				c1.567-1.617,2.85-3.447,2.85-4.066c0-2.138-3.066-1.116-6.007,2.002c-2.252,2.388-3.386,2.957-4.793,2.406
				c-1.72-0.672-1.703-0.726,0.265-0.786c1.297-0.04,2.107-0.652,2.107-1.594c0-1.239-0.701-1.436-3.71-1.03
				c-2.542,0.34-4.052,0.084-4.797-0.813c-0.874-1.055-0.697-1.312,0.899-1.312c1.094,0,1.988-0.562,1.988-1.249
				c0-1.999-0.97-2.438-3.374-1.523c-1.418,0.538-2.245,0.516-2.245-0.061c0-0.503,0.737-0.926,1.639-0.942
				c0.9-0.017,2.456-0.649,3.456-1.406c2.563-1.938,3.981-1.721,6.318,0.967c2.201,2.531,5.444,3.148,5.444,1.037
				c0-0.719-0.738-1.589-1.639-1.937c-1.561-0.601-1.561-0.675,0-1.551c0.9-0.507,1.639-1.565,1.639-2.352
				c0-1.079-0.642-1.293-2.594-0.864c-1.687,0.37-3.242,0.051-4.448-0.914c-1.812-1.449-1.808-1.46,0.19-0.495
				c2.771,1.34,4.042,1.242,4.042-0.309c0-3.042-7.694-5.714-8.724-3.031c-0.375,0.977-1.44,1.12-4.353,0.587
				c-4.891-0.895-5.942-1.878-2.005-1.878c2.32,0,2.986-0.383,2.857-1.64c-0.365-3.598-0.04-4.284,1.45-3.047
				c1.126,0.934,1.837,0.875,3.638-0.306c2.456-1.608,3.39-1.223,3.39,1.402c0,2.246,2.488,2.207,3.903-0.061
				c0.901-1.441,1.434-1.575,2.818-0.711c0.939,0.586,1.708,1.925,1.708,2.974c0,3.001,2.656,6.071,5.252,6.071
				c1.707,0,2.58,0.695,3.239,2.575c0.496,1.416,2.266,3.38,3.931,4.365l3.03,1.789l-4.449,1.896
				c-3.479,1.483-4.448,2.367-4.448,4.063c0,1.192-0.421,2.168-0.937,2.168s-0.937,0.844-0.937,1.873c0,1.058-0.625,1.873-1.434,1.873
				c-2.374,0-2.688,2.777-0.629,5.563c2.161,2.922,1.333,4.739-2.159,4.739c-1.087,0-2.793,0.618-3.794,1.375
				C152.466,614.585,152.2,614.592,144.022,613.283L144.022,613.283z">
				<title>Torsken</title>
			</path>
			<path id="path4748" data-url="/?s=+&amp;mu%5B%5D=Kåfjord" d="M438.321,584.513c-0.62-1.953-2.768-2.521-3.718-0.985c-0.312,0.508-1.947,0.064-3.797-1.025
				c-2.555-1.508-3.137-2.354-2.731-3.97c0.284-1.13,0.082-3.197-0.449-4.592c-0.897-2.361-1.35-2.54-6.425-2.54
				c-4.383,0-6.099-0.471-8.687-2.384c-1.998-1.477-4.189-2.284-5.762-2.121c-2.012,0.208-3.118-0.509-5.358-3.469
				c-2.406-3.182-2.827-4.567-2.85-9.404c-0.021-4.734-0.436-6.168-2.503-8.663c-1.407-1.699-3.974-3.394-5.939-3.923l-3.463-0.933
				l0.734-4.452c0.401-2.449,0.757-7.113,0.788-10.367c0.058-6.147,1.181-9.556,3.133-9.512c1.621,0.037,5.931,4.723,6.73,7.317
				c0.482,1.57,1.183,2.061,2.462,1.727c1.299-0.34,1.938,0.135,2.342,1.744c0.644,2.566,5.506,4.563,8.982,3.69
				c1.577-0.396,2.76,0.008,3.985,1.363c2.165,2.394,4.263,2.49,4.263,0.199c0-2.655-3.062-4.828-6.801-4.828
				c-2.841,0-3.887-0.631-6.602-3.98c-1.775-2.189-3.515-4.921-3.867-6.07c-0.352-1.15-2.498-3.426-4.771-5.057
				c-5.715-4.104-6.851-7.77-4.077-13.158c1.245-2.421,2.111-5.865,2.158-8.581c0.067-3.961-0.278-4.821-2.732-6.785l-2.81-2.25
				l3.337-0.004c4.101-0.005,7.691,3.428,9.301,8.892c1.437,4.884,4.24,8.333,6.172,7.592c1.052-0.404,1.793,0.239,2.532,2.195
				c0.721,1.914,1.777,2.853,3.423,3.045c1.516,0.178,2.499,0.958,2.712,2.151c0.183,1.03,1.38,2.986,2.66,4.346
				c1.484,1.577,1.961,2.698,1.313,3.098c-2.164,1.338-0.815,4.252,3.729,8.058c4.573,3.829,4.72,4.101,4.12,7.651l-0.621,3.68
				l4.542-0.655c2.498-0.36,5.91-1.212,7.58-1.894c2.692-1.098,3.136-1.056,3.901,0.375c0.653,1.22-0.254,3.436-3.713,9.081
				c-2.518,4.107-4.589,7.994-4.604,8.638c-0.016,0.676,1.132,1.17,2.716,1.17c2.643,0,5.686,2.031,5.686,3.795
				c0,0.468,2.506,3.616,5.568,6.995s5.846,7.021,6.187,8.094c0.501,1.576-0.972,3.549-7.655,10.264
				c-4.551,4.572-8.782,8.313-9.402,8.313C439.422,586.385,438.648,585.542,438.321,584.513L438.321,584.513z">
				<title>Kåfjord</title>
			</path>
			<path id="path4758" data-url="/?s=+&amp;mu%5B%5D=Lenvik" d="M207.191,613.969c0.637-3.927-1.887-6.98-5.769-6.98c-1.728,0-2.38-0.495-2.38-1.808
				c0-1.163-0.754-1.916-2.107-2.107c-1.784-0.254-2.198-1.049-2.704-5.19c-0.386-3.158-1.629-6.448-3.512-9.292
				c-1.604-2.42-2.915-4.926-2.915-5.566c0-0.642-0.478-1.326-1.062-1.521c-0.696-0.232-0.535-0.881,0.468-1.884
				c1.908-1.908,1.953-3.893,0.125-5.41c-1.947-1.616-1.802-2.611,1.414-9.704c1.643-3.623,3.401-6.218,4.214-6.218
				c0.97,0,1.396-0.998,1.396-3.278c0-1.802-0.473-3.278-1.052-3.278c-0.748,0-0.729-0.387,0.063-1.342
				c0.873-1.052,0.784-1.845-0.415-3.674c-1.468-2.24-1.451-2.312,0.405-1.826c1.343,0.351,1.934,0.06,1.934-0.953
				c0-0.803-0.421-1.719-0.937-2.038c-0.515-0.318-0.936-1.573-0.936-2.788c0-1.214-0.828-4.139-1.84-6.5
				c-1.741-4.062-1.75-4.292-0.165-4.292c1.188,0,2.335,1.702,3.947,5.853c1.735,4.472,2.713,5.854,4.145,5.854
				c1.4,0,1.896-0.656,1.967-2.601c0.052-1.431,1.057-3.624,2.23-4.874l2.135-2.273l1.75,3.433c2.543,4.989,2.293,9.692-0.663,12.47
				c-1.754,1.647-2.31,2.972-2.036,4.845c0.259,1.763-0.035,2.578-0.929,2.578c-0.82,0-1.197,0.785-1.009,2.107
				c0.227,1.595,1.012,2.177,3.229,2.392c2.447,0.239,3.025-0.095,3.511-2.032c0.32-1.275,0.348-2.926,0.063-3.67
				s0.368-3.052,1.45-5.13c1.94-3.722,2.01-3.759,4.636-2.449c1.466,0.731,3.22,1.999,3.898,2.816c1.037,1.249,0.977,1.675-0.369,2.66
				c-0.882,0.645-1.604,1.766-1.604,2.49c0,0.726-1.08,2.908-2.399,4.851c-2.688,3.955-2.803,8.406-0.228,8.894
				c1.159,0.22,1.861-0.714,2.601-3.464c1.245-4.623,2.122-5.249,4.177-2.979c1.042,1.153,1.248,1.97,0.593,2.375
				c-1.332,0.823-1.316,11.744,0.018,11.744c2.253,0,0.063,2.226-3.598,3.657c-2.146,0.838-5.382,2.96-7.191,4.714l-3.29,3.188
				l1.926,3.117c1.059,1.715,1.469,3.117,0.913,3.117c-0.557,0-1.012,0.632-1.012,1.405c0,0.771,0.641,1.405,1.425,1.405
				s1.926,1.099,2.538,2.443c0.956,2.098,0.861,2.628-0.667,3.746c-0.979,0.715-2.965,1.302-4.412,1.302
				c-3.591,0-3.471,2.654,0.181,4.033c1.547,0.583,3.059,1.836,3.359,2.785c0.335,1.055,1.333,1.66,2.573,1.563
				c3.993-0.315,3.828,0.141-1.208,3.35C207.5,618.222,206.502,618.212,207.191,613.969L207.191,613.969z M225.872,604.179
				c0.522-2.61,0.367-2.81-2.177-2.81c-1.507,0-3.239,0.498-3.848,1.108c-1.717,1.717-2.19,0.436-1.048-2.841
				c0.57-1.636,0.704-3.705,0.299-4.602c-0.406-0.895-0.764-3.199-0.798-5.12c-0.05-2.863,0.362-3.678,2.28-4.506
				c3.468-1.498,6.792-7.185,6.36-10.884c-0.316-2.708-0.057-3.125,2.26-3.634c2.705-0.594,3.561-2.933,1.381-3.769
				c-0.764-0.293-1.088-1.49-0.849-3.125c0.214-1.457-0.3-3.982-1.142-5.61c-1.9-3.674-1.397-4.583,2.239-4.05
				c2.168,0.318,2.975,0.004,3.409-1.327c0.313-0.958,0.771-2.375,1.017-3.148c0.358-1.124,0.792-0.983,2.167,0.702
				c0.946,1.159,2.348,2.107,3.117,2.107c1.641,0,3.454,4.647,3.454,8.853c0,1.674-1.218,4.875-2.81,7.385
				c-2.899,4.572-3.554,7.176-1.806,7.176c1.215,0,2.584-1.363,5.413-5.385l2.14-3.043l3.214,2.452
				c3.112,2.374,3.215,2.656,3.215,8.896c0,3.963-0.387,6.445-1.004,6.445c-0.553,0-4.368,3.054-8.478,6.789
				c-6.412,5.826-7.421,7.155-7.118,9.365c0.296,2.142,0.004,2.576-1.717,2.576c-1.14,0-3.279,0.629-4.754,1.398
				C226.193,607.713,225.227,607.408,225.872,604.179L225.872,604.179z M188.015,546.493c-1.404-2.368-3.877-6.056-5.495-8.194
				c-1.763-2.331-3.103-5.369-3.344-7.58c-0.324-2.964-0.206-3.347,0.601-1.947c0.552,0.959,2.307,3.251,3.902,5.095
				c1.621,1.875,3.401,5.415,4.041,8.035c0.628,2.575,1.757,5.631,2.508,6.79c0.75,1.159,1.135,2.107,0.852,2.107
				C190.798,550.798,189.418,548.861,188.015,546.493L188.015,546.493z">
				<title>Lenvik</title>
			</path>
			<path id="path4750" data-url="/?s=+&amp;mu%5B%5D=Berg" d="M171.227,586.999c-1.648-1.11-3.418-3.178-3.932-4.593c-0.68-1.873-1.573-2.576-3.271-2.576
				c-2.619,0-5.252-3.076-5.252-6.138c0-1.163-0.992-2.505-2.411-3.265c-2.244-1.201-2.297-1.374-0.758-2.5
				c3.203-2.342,5.919-1.391,11.251,3.942c5.266,5.266,7.849,6.424,7.826,3.513c-0.027-3.481-1.19-5.854-2.868-5.854
				c-0.95,0-2.782-1.138-4.073-2.53c-2.623-2.829-2.443-4.255,0.231-1.835c1.926,1.743,4.441,2.036,5.317,0.62
				c0.318-0.516,1.573-0.937,2.787-0.937c3.181,0,5.173-0.94,5.173-2.441c0-1.53-0.414-1.614-8.463-1.705
				c-5.065-0.057-6.625-0.472-9.039-2.41c-2.934-2.354-5.789-9.365-3.814-9.365c1.213,0,4.228,3.424,5.978,6.79
				c1.446,2.78,4.101,3.499,4.101,1.109c0-0.806-0.432-2.272-0.959-3.259c-0.87-1.625-0.695-1.739,1.873-1.226
				c2.421,0.484,2.833,0.286,2.833-1.37c0-1.065-0.755-2.488-1.678-3.161c-1.979-1.444-6.231-7.312-5.298-7.312
				c0.354,0,3.122,1.506,6.151,3.346c3.657,2.222,5.508,3.952,5.508,5.151c0,1.992,2.414,2.493,3.062,0.635
				c0.224-0.644,1.223,0.515,2.217,2.575c1.6,3.312,2.167,3.729,4.888,3.601c4.021-0.19,4.782-1.073,2.474-2.867
				c-1.636-1.271-1.656-1.379-0.156-0.86c0.943,0.327,1.892,0.595,2.106,0.595c0.216,0,0.393,1.053,0.393,2.341
				c0,1.45-0.531,2.341-1.396,2.341c-1.533,0-7.033,11.212-7.033,14.337c0,1.047,0.68,2.656,1.512,3.576
				c1.393,1.538,1.393,1.792,0,3.184c-0.832,0.833-1.519,2.642-1.527,4.021c-0.02,3.504-1.03,4.743-4.728,5.805
				C175.911,589.521,174.72,589.352,171.227,586.999L171.227,586.999z M180.38,538.878c-2.129-2.584-2.839-4.349-2.728-6.79
				l0.149-3.299l0.378,3.278c0.208,1.803,1.635,4.858,3.171,6.79c1.537,1.931,2.595,3.511,2.351,3.511
				C183.457,542.369,181.962,540.798,180.38,538.878z">
				<title>Berg</title>
			</path>
			<path id="path4744" data-url="/?s=+&amp;mu%5B%5D=Lyngen" d="M354.529,555.527c-0.729-1.362-0.584-2.651,0.573-5.078c1.449-3.037,1.446-3.358-0.031-4.836
				c-1.484-1.485-1.482-1.733,0.041-4.052c5.144-7.83,7.819-13.673,7.819-17.076c0-3.554,0.092-3.656,3.278-3.656
				c4.732,0,4.311-2.405-0.56-3.184c-4.682-0.749-16.524-4.815-18.291-6.281c-0.707-0.586-1.285-2.085-1.285-3.331
				c0-1.245-0.907-3.492-2.016-4.993c-1.984-2.682-1.991-2.8-0.365-7.055c0.908-2.38,2.237-4.552,2.954-4.826
				c1.479-0.568,1.757-3.652,0.405-4.488c-1.133-0.699-0.27-3.205,1.957-5.689c0.945-1.055,1.997-3.373,2.334-5.151
				c0.648-3.393,3.05-8.805,3.645-8.21c0.191,0.191-0.067,2.021-0.575,4.067c-1.6,6.443-1.861,12.616-0.535,12.616
				c2.098,0,3.436-2.16,3.447-5.572c0.019-5.208,3.372-20.164,5.117-22.828c0.868-1.324,1.499-3.587,1.402-5.031
				c-0.375-5.631,0.3-6.074,1.007-0.66c0.41,3.14,1.401,7.279,2.202,9.198c1.854,4.437,3.824,3.614,2.89-1.206
				c-0.364-1.871-0.72-5.791-0.792-8.711c-0.11-4.41,0.245-5.712,2.094-7.679c1.291-1.375,1.991-2.978,1.669-3.821
				c-0.963-2.51,0.7-1.569,2.828,1.598c1.122,1.67,2.329,4.622,2.681,6.558c0.353,1.936,1.479,4.584,2.503,5.885
				c1.903,2.421,1.73,6.983-0.265,6.983c-0.549,0-0.907,1.928-0.829,4.448c0.075,2.447-0.318,7.398-0.876,11.004
				c-0.557,3.605-1.153,9.527-1.324,13.159c-0.173,3.632-0.609,7.084-0.973,7.672c-0.689,1.116,1.296,8.668,2.278,8.668
				c1.108,0,4.428,3.372,4.645,4.717c0.477,2.971-2.055,7.175-5.234,8.691c-1.783,0.85-3.241,2.212-3.241,3.027
				c0,2.428,1.829,5.104,3.489,5.104c1.359,0,1.339,0.156-0.169,1.258c-1.197,0.875-1.576,2.018-1.246,3.747
				c0.262,1.368,0.112,2.487-0.331,2.487s-0.807,1.054-0.807,2.341c0,1.457,0.53,2.341,1.404,2.341c1.755,0,1.761,0.838,0.037,4.809
				l-1.368,3.151l-0.037-3.043c-0.024-2.025-0.493-3.043-1.402-3.043c-1.055,0-1.427,1.648-1.638,7.256l-0.273,7.255l-5.619,1.566
				C359.336,557.814,355.735,557.783,354.529,555.527L354.529,555.527z M383.144,500.352c-0.403-0.653-0.481-1.44-0.172-1.749
				c0.838-0.838,1.753,0.394,1.3,1.752C383.954,501.307,383.734,501.306,383.144,500.352L383.144,500.352z">
				<title>Lyngen</title>
			</path>
			<path id="path4754" data-url="/?s=+&amp;mu%5B%5D=Nordreisa" d="M508.409,607.223c-3.248-3.478-5.912-6.697-5.921-7.154
				c-0.011-0.457-1.598-2.594-3.529-4.746c-1.931-2.153-6.964-8.17-11.181-13.371c-8.507-10.487-6.185-9.248-23.446-12.506
				c-4.209-0.794-5.979-1.576-6.371-2.812c-0.3-0.941-3.011-4.434-6.025-7.759c-3.014-3.326-5.757-6.924-6.098-7.996
				c-0.564-1.777-1.604-2.288-6.294-3.088c-1.302-0.223-0.762-1.614,3.016-7.763c5.075-8.259,5.213-8.715,3.401-11.193
				c-1.181-1.615-1.504-1.63-5.386-0.247c-2.27,0.809-5.469,1.696-7.107,1.971c-2.965,0.498-2.976,0.485-2.427-2.9
				c0.518-3.192,0.25-3.664-4.4-7.742c-4.598-4.032-4.861-4.488-3.689-6.366c1.13-1.808,1.002-2.301-1.192-4.63
				c-1.351-1.434-2.605-3.45-2.788-4.48c-0.212-1.194-1.196-1.974-2.712-2.151c-1.661-0.195-2.702-1.136-3.452-3.123
				c-0.749-1.983-1.585-2.741-2.765-2.504c-2.102,0.422-4.331-2.309-5.882-7.206c-1.808-5.712-5.25-8.897-9.618-8.897
				c-2.179,0-3.395-0.373-3.047-0.936c0.317-0.515,1.332-0.937,2.255-0.937s3.532-1.256,5.798-2.792
				c2.267-1.536,4.754-2.813,5.526-2.839c2.987-0.1,6.394-4.356,7.064-8.829c0.563-3.762,0.363-4.686-1.431-6.596l-2.088-2.221
				l5.554-5.453c3.055-2.999,6.787-6.549,8.294-7.89c1.508-1.34,3.442-3.447,4.298-4.683c1.233-1.774,1.805-2.006,2.733-1.105
				c0.938,0.911,0.853,1.263-0.419,1.752c-2.054,0.788-6.514,7.314-8.182,11.97c-0.714,1.993-2.248,4.372-3.41,5.286
				c-2.122,1.668-2.938,5.606-1.164,5.606c0.522,0,1.776-0.517,2.786-1.147c1.449-0.905,2.079-0.905,2.984,0s0.811,1.147-0.444,1.147
				c-2.469,0-1.954,3.745,1.195,8.713c3.194,5.035,5.988,5.779,7.689,2.047c0.923-2.028,0.76-2.681-1.192-4.758
				c-2.215-2.359-2.225-2.434-0.442-3.737c0.999-0.731,2.158-1.329,2.575-1.329c1.259,0,0.851-3.027-0.629-4.662
				c-2.159-2.386,0.518-5.64,4.64-5.64c3.926,0,4.458,1.384,2.235,5.816c-2,3.989-2.326,9.179-0.572,9.146
				c0.644-0.013,2.389-2.595,3.875-5.738l2.704-5.715l-2.002-4.12c-2.45-5.044-2.455-4.835,0.108-4.345
				c2.816,0.539,7.255-1.224,7.255-2.88c0-1.46-1.956-2.465-4.799-2.465c-3.203,0-5.771-3.21-5.079-6.353
				c0.583-2.657,0.85-2.783,6.877-3.267c6.869-0.551,9.557,0.305,9.557,3.046c0,1.943,7.417,9.411,10.489,10.563
				c1.47,0.552,1.742,1.187,1.203,2.81c-0.382,1.154-0.746,3.574-0.81,5.376c-0.103,2.98,0.143,3.306,2.696,3.584
				c1.546,0.168,3.21,0.695,3.699,1.171c0.49,0.476,2.091,0.864,3.56,0.864c2.162,0,2.929,0.619,4.027,3.248
				c1.678,4.016,1.679,4.245,0.016,4.245c-2.242,0-2.718,3.683-0.976,7.547c1.574,3.49,1.563,3.694-0.372,6.975
				c-1.097,1.858-1.993,4.636-1.993,6.173s-0.913,4.028-2.029,5.538c-1.898,2.569-1.952,3.079-0.847,8.022
				c0.65,2.903,1.748,6.634,2.439,8.29c1.638,3.92,7.709,8.146,11.31,7.871c1.507-0.115,4.727,0.348,7.154,1.028
				c4.405,1.233,4.435,1.226,10.811-2.627c4.424-2.673,7.458-3.863,9.849-3.863c3.366,0,3.457,0.092,3.476,3.512
				c0.023,3.886,3.076,11.472,4.617,11.472c0.541,0,0.982,0.632,0.982,1.405c0,0.773,0.632,1.405,1.404,1.405
				c1.028,0,1.406,1.068,1.409,3.979c0.002,2.324,0.78,5.256,1.873,7.047c1.028,1.687,1.869,3.882,1.869,4.88
				c0,0.998,0.948,2.691,2.107,3.764s2.95,3.543,3.98,5.492c2.249,4.253,7.098,11.836,9.731,15.216
				c2.732,3.508,3.822,9.541,3.282,18.152c-0.732,11.651-1.146,13.403-3.317,14.092c-1.068,0.34-3.624,2.136-5.679,3.99
				c-3.246,2.935-5.035,3.648-13.71,5.474c-5.486,1.154-10.787,2.12-11.78,2.148C515.057,613.522,511.882,610.94,508.409,607.223
				L508.409,607.223z M395.827,471.025c-0.451-1.195-1.114-3.927-1.475-6.07l-0.653-3.898l3.74,0.95
				c2.057,0.522,4.659,1.927,5.782,3.123l2.042,2.173l-2.815,1.456c-1.55,0.801-3.487,2.127-4.308,2.948
				C396.775,473.071,396.579,473.013,395.827,471.025L395.827,471.025z">
				<title>Nordreisa</title>
			</path>
			<path id="path4746" data-url="/?s=+&amp;mu%5B%5D=Tromsø" d="M339.098,579.287c-0.487-2.599-1.14-3.375-3.178-3.783c-2.284-0.457-2.522-0.856-2.194-3.67
				c0.324-2.772,0.064-3.234-2.119-3.782c-1.811-0.455-2.815-0.172-3.703,1.04c-1.115,1.525-1.483,1.303-4.399-2.643
				c-1.752-2.37-4.343-4.804-5.76-5.411c-2.918-1.25-3.263-2.864-1.076-5.051c1.905-1.905,1.046-5.787-1.454-6.581
				c-3.434-1.09-11.136,4.54-10.057,7.351c0.285,0.742,0.278,1.588-0.015,1.88c-1.398,1.399-14.322-10.957-14.323-13.693
				c0-0.902-0.421-1.639-0.936-1.639c-1.703,0-0.977-2.048,1.873-5.294c1.544-1.76,2.81-3.539,2.81-3.954
				c0-0.415,1.073-1.243,2.386-1.841c2.118-0.965,2.64-0.798,4.652,1.489c1.248,1.417,2.281,2.891,2.296,3.278
				c0.017,0.386,0.662,0.702,1.435,0.702c2.051,0,1.752-4.077-0.444-6.066c-1.018-0.92-2.1-2.46-2.405-3.423
				c-0.544-1.714-3.238-2.514-3.238-0.961c0,0.434-1.716,1.302-3.815,1.931c-2.863,0.858-4.049,1.815-4.754,3.837
				c-1.915,5.494-6.042,0.099-7.01-9.167c-0.564-5.395-0.502-5.579,4.694-13.98c3.138-5.073,5.271-9.59,5.279-11.18
				c0.022-4.845,0.98-6.759,3.532-7.063c1.788-0.212,2.613-1.02,3.164-3.096c1.039-3.915,3.168-5.152,8.866-5.152
				c2.705,0,5.178-0.421,5.496-0.937c0.318-0.515,1.291-0.945,2.162-0.957c0.872-0.011,2.638-0.845,3.925-1.852
				c1.289-1.008,2.87-1.841,3.517-1.852c0.646-0.011,3.265-1.03,5.821-2.263c3.427-1.652,4.882-1.958,5.542-1.162
				c1.176,1.417,0.597,7.323-0.964,9.822c-0.936,1.498-0.986,2.616-0.215,4.661c1.042,2.762,0.107,11.061-1.626,14.427
				c-1.346,2.615-0.985,3.525,1.396,3.525c2.648,0,5.434,3.665,4.312,5.673c-0.415,0.743-0.719,2.826-0.675,4.628
				c0.105,4.497-1.09,10.302-2.124,10.302c-2.491,0-2.063,10.914,0.531,13.508c1.128,1.127,0.852,1.957-1.939,5.844
				c-1.787,2.492-4.088,6.07-5.109,7.954c-1.022,1.882-2.924,4.261-4.226,5.285c-3.012,2.37-3.022,3.934-0.024,3.934
				c1.747,0,3.222-1.225,5.803-4.816c3.239-4.508,3.518-4.688,4.356-2.81c1.678,3.761,3.201,2.319,3.071-2.91
				c-0.098-3.958,0.381-5.644,2.454-8.646c2.887-4.179,3.255-6.104,1.172-6.104c-1.761,0-1.754-0.142,0.199-4.238
				c1.304-2.735,1.373-3.508,0.366-4.13c-1.401-0.866-0.574-8.49,0.92-8.49c1.497,0,0.918-2.681-0.784-3.636
				c-1.438-0.808-1.459-0.99-0.176-1.485c0.806-0.31,4.558,0.752,8.337,2.36c3.836,1.632,7.845,2.739,9.072,2.504
				c1.97-0.376,2.199-0.078,2.199,2.862c0,2.283-1.443,5.68-4.732,11.148c-3.226,5.357-4.549,8.449-4.151,9.698
				c0.32,1.009,0.985,1.834,1.479,1.834c0.493,0,0.2,1.349-0.653,2.997c-1.291,2.498-1.362,3.511-0.429,6.091
				c1.502,4.156,0.682,6.189-3.258,8.068c-1.813,0.865-3.525,2.31-3.805,3.212c-0.28,0.902-0.899,2.372-1.377,3.266
				s-0.867,3.27-0.867,5.278c0,2.818-0.512,3.985-2.245,5.121C339.755,582.528,339.699,582.493,339.098,579.287L339.098,579.287z
				 M267.924,553.812c-0.284-0.284-0.517-1.666-0.517-3.069c0-2.484-1.419-3.691-4.342-3.691c-2.053,0-9.705-3.661-9.705-4.643
				c0-0.467,0.948-1.139,2.107-1.492c1.159-0.354,2.739-1.169,3.512-1.813c0.773-0.643,3.301-1.452,5.62-1.799
				c5.762-0.862,9.055-2.44,10.422-4.996c1.383-2.585,2.007-1.993,3.526,3.343c0.981,3.443,0.934,4.39-0.31,6.289
				c-0.806,1.229-1.464,2.882-1.464,3.672c0,1.72,3.367,1.938,4.112,0.267c0.286-0.644,0.427-0.194,0.312,0.999
				c-0.167,1.721-1.507,2.714-6.482,4.809C271.262,553.141,268.207,554.096,267.924,553.812L267.924,553.812z M229.867,540.76
				c-0.816-0.188-2.194-1.831-3.062-3.651c-1.396-2.926-1.884-3.242-4.22-2.729c-3.632,0.797-5.219-1.262-4.387-5.696
				c0.828-4.421,2.391-6.856,4.002-6.238c0.707,0.271,2.317-0.477,3.58-1.662c1.302-1.224,2.294-1.65,2.294-0.988
				c0,0.666,0.903,1.049,2.106,0.895c3.06-0.396,4.449,0.817,4.449,3.884c0,3.625,1.652,4.448,2.81,1.401
				c0.514-1.352,2.2-3.522,3.744-4.822c4.759-4.005,2.826-7.127-1.995-3.223l-2.205,1.785l-3.051-4.291
				c-2.135-3.003-3.05-5.343-3.05-7.794c0-1.926-0.316-3.68-0.703-3.896c-0.387-0.216-0.07-0.194,0.703,0.051
				c7.094,2.24,8.413,2.383,10.694,1.163c1.707-0.914,4.419-1.1,9.877-0.679c6.915,0.533,7.524,0.439,7.524-1.159
				c0-2.053-2.93-2.716-12.521-2.833c-3.538-0.043-6.804-0.308-7.257-0.588c-0.454-0.281-0.825-1.988-0.825-3.794
				c0-1.807-0.478-4.178-1.063-5.27c-0.908-1.696-0.693-2.303,1.473-4.166c2.707-2.329,4.568-2.141,3.606,0.366
				c-0.489,1.272-0.104,1.427,2.33,0.94c2.851-0.57,2.928-0.492,3.542,3.598c0.82,5.471,3.224,5.795,3.224,0.434
				c0-2.134,0.45-3.746,1.045-3.746c0.615,0,0.859-0.98,0.592-2.375c-0.481-2.518,1.358-4.181,4.622-4.181
				c1.457,0,1.728,0.906,1.887,6.321c0.102,3.477,0.523,8.85,0.937,11.94l0.751,5.619l3.98,0.288c3.028,0.219,3.98-0.045,3.98-1.105
				c0-0.766-0.948-1.538-2.107-1.715c-1.205-0.184-1.986-0.876-1.825-1.616c0.155-0.712,0.514-4.074,0.796-7.47
				c0.32-3.852,1.183-7.129,2.292-8.712c2.17-3.096,2.292-5.423,0.285-5.423c-2.588,0-6.934-3.738-6.934-5.963
				c0-1.15-0.47-2.561-1.045-3.135c-0.768-0.769-0.683-1.561,0.323-2.998c1.366-1.951,1.369-1.951,3.063-0.079
				c2.437,2.692,3.603,2.322,2.951-0.936c-0.619-3.098,0.346-3.595,2.603-1.337c1.674,1.674,1.916,3.762,0.535,4.615
				c-0.515,0.318-0.937,1.22-0.937,2.003c0,1.093,0.648,1.281,2.79,0.811c2.279-0.501,3.224-0.144,5.168,1.954
				c2.202,2.376,2.466,2.446,3.565,0.945c1.121-1.534,1.263-1.529,2.606,0.079c0.781,0.935,2.494,3.388,3.806,5.449
				c2.233,3.507,2.306,3.98,1.131,7.375c-0.691,1.995-2.103,4.362-3.138,5.259c-1.034,0.898-1.898,2.004-1.917,2.458
				c-0.093,2.209-6.377,7.642-10.032,8.674c-2.4,0.678-3.98,1.679-3.98,2.521c0,1.994,2.563,2.708,4.361,1.216
				c1.364-1.131,1.45-1.017,0.808,1.066c-1.001,3.249-1.17,3.321-3.295,1.397c-2.275-2.059-2.728-1.705-3.441,2.693
				c-0.474,2.919-0.298,3.394,1.257,3.394c0.994,0,2.314-0.505,2.932-1.124c0.875-0.874,1.125-0.822,1.13,0.234
				c0.002,0.747,0.61,2.517,1.349,3.934c1.095,2.097,1.112,2.576,0.096,2.576c-0.686,0-1.538,1.156-1.893,2.57
				c-0.354,1.413-1.083,3.099-1.62,3.746c-1.336,1.61-4.948,1.48-6.365-0.229c-1.831-2.205-4.049-1.596-6.103,1.675
				c-1.36,2.167-2.93,3.241-5.619,3.843c-2.051,0.46-5.444,1.619-7.539,2.575c-2.093,0.957-4.959,1.74-6.367,1.74
				c-1.409,0-3.699,0.557-5.09,1.239C232.489,540.544,230.684,540.948,229.867,540.76L229.867,540.76z M207.47,521.766
				c0-0.515,0.422-0.937,0.937-0.937s0.936,0.422,0.936,0.937c0,0.515-0.421,0.937-0.936,0.937S207.47,522.281,207.47,521.766z
				 M216.836,518.901c0-0.546,0.421-0.731,0.936-0.414c0.515,0.319,0.937,0.765,0.937,0.992c0,0.227-0.422,0.413-0.937,0.413
				C217.257,519.893,216.836,519.447,216.836,518.901z M212.153,517.083c0-0.515,0.632-0.936,1.405-0.936s1.405,0.421,1.405,0.936
				c0,0.515-0.632,0.937-1.405,0.937S212.153,517.598,212.153,517.083z M221.841,514.434c1.731-1.912,2.043-3.907,0.614-3.907
				c-0.515,0-0.936-0.399-0.936-0.887c0-0.54,1.104-0.503,2.809,0.092c3.357,1.17,3.522,2.243,0.703,4.595
				C222.158,516.722,219.695,516.805,221.841,514.434L221.841,514.434z M280.977,512.372c-0.945-2.975,1.198-8.779,4.358-11.807
				c3.56-3.411,3.424-1.578-0.523,7.025C282.099,513.503,281.553,514.185,280.977,512.372L280.977,512.372z M226.2,506.313
				c-0.662-0.797-0.993-1.661-0.735-1.918c0.257-0.257,1.009,0.184,1.671,0.982c0.661,0.797,0.992,1.661,0.735,1.918
				C227.614,507.553,226.862,507.111,226.2,506.313z M218.936,497.731c-1.475-0.595-0.579-2.188,1.232-2.188
				c0.743,0,1.35,0.632,1.35,1.405C221.518,498.393,220.981,498.555,218.936,497.731z M228.267,496.218
				c-1.977-2.104-1.98-2.151-0.176-3.278c2.461-1.536,2.473-1.531,3.56,1.587C233.141,498.801,231.476,499.633,228.267,496.218
				L228.267,496.218z M223.465,490.315c0.045-1.091,0.266-1.313,0.565-0.566c0.271,0.677,0.237,1.484-0.074,1.795
				C223.645,491.855,223.424,491.302,223.465,490.315L223.465,490.315z M290.767,479.352c-1.006-1.081-2.332-3.35-2.943-5.041
				c-0.712-1.969-2.225-3.603-4.21-4.544c-1.703-0.808-3.096-2.034-3.096-2.723c0-1.466-3.391-3.868-9.528-6.752
				c-5.467-2.568-7.726-5.763-6.862-9.7c0.532-2.422,0.958-2.786,2.659-2.269c1.114,0.339,2.69,1.198,3.503,1.91
				c2.065,1.807,3.445,1.614,4.141-0.579c0.327-1.03,0.987-1.874,1.468-1.874c0.48,0,0.874-0.632,0.874-1.404
				s-0.759-1.405-1.686-1.405c-1.737,0-3.933-1.674-3.933-2.997c0-1.381,3.058-0.767,4.242,0.853c0.969,1.325,1.575,1.418,3.507,0.538
				c1.848-0.842,2.747-0.774,4.316,0.325c1.694,1.187,1.982,2.331,1.982,7.89c0,5.637,0.224,6.502,1.685,6.502
				c0.928,0,2.155-0.469,2.729-1.042c1.742-1.741,2.992-0.06,3.651,4.911c0.574,4.332,0.812,4.693,2.831,4.307
				c1.212-0.231,2.68,0.152,3.261,0.853c1.525,1.837,3.324,1.569,4.938-0.734c1.4-2,1.408-1.997,1.982,0.702
				c0.318,1.491,0.987,3.465,1.488,4.387c0.503,0.922,0.706,2.011,0.453,2.419c-1.174,1.901-7.966,5.731-11.591,6.536
				C293.08,481.211,292.381,481.083,290.767,479.352z M245.867,475.964c0-0.595,0.664-1.338,1.476-1.649
				c0.812-0.313,1.862-1.58,2.332-2.818c0.703-1.849,1.173-2.083,2.624-1.306c2.439,1.305,3.245,5.685,1.048,5.685
				c-0.895,0-2.943,0.264-4.553,0.586C246.866,476.848,245.867,476.678,245.867,475.964z M257.418,474.472
				c0-0.772,0.351-1.405,0.779-1.405c0.43,0,0.781,0.632,0.781,1.405s-0.351,1.404-0.781,1.404
				C257.768,475.876,257.418,475.245,257.418,474.472z M242.196,473.458c0.045-1.091,0.266-1.313,0.565-0.566
				c0.271,0.676,0.238,1.484-0.074,1.795C242.376,474.998,242.154,474.445,242.196,473.458L242.196,473.458z M316.561,465.929
				c0.78-1.866,1.418-3.551,1.418-3.747c0-0.194,1.264-0.354,2.809-0.354s2.81,0.449,2.81,0.999c0,0.55,1.159,0.866,2.575,0.702
				c2.445-0.281,2.591-0.575,2.858-5.781c0.277-5.354,0.328-5.445,2.093-3.848c1.232,1.114,1.633,2.336,1.257,3.832
				c-0.443,1.769-0.062,2.382,1.964,3.152c3.169,1.205,2.617,3.197-0.986,3.567c-1.506,0.155-5.983,1.314-9.952,2.575
				c-3.968,1.262-7.451,2.294-7.739,2.294C315.379,469.321,315.782,467.795,316.561,465.929L316.561,465.929z M248.677,445.854
				c0-0.545,0.421-0.731,0.937-0.414c0.515,0.319,0.937,0.765,0.937,0.992c0,0.227-0.422,0.413-0.937,0.413
				C249.098,446.845,248.677,446.399,248.677,445.854z M260.524,439.14c-0.302-1.153,0.069-3.023,0.828-4.181
				c1.778-2.715,1.73-3.24-0.266-2.904c-1.25,0.21-1.711-0.484-1.944-2.922l-0.305-3.198l2.379,1.56
				c1.309,0.856,3.167,1.558,4.129,1.558c2.738,0,3.083,0.992,1.261,3.641c-0.924,1.346-2.228,3.817-2.895,5.49
				C262.29,441.745,261.284,442.046,260.524,439.14L260.524,439.14z M249.643,432.125c-0.023-2.301,0.303-2.887,1.375-2.475
				c1.758,0.674,1.765,1.378,0.029,3.671C249.746,435.042,249.671,434.978,249.643,432.125z">
				<title>Tromsø</title>
			</path>
			<path id="path4698" data-url="/?s=+&amp;mu%5B%5D=Skjervøy" d="M403.168,463.303c-0.755-0.735-2.847-1.708-4.649-2.162c-3.035-0.765-3.3-1.122-3.569-4.821
				c-0.347-4.763,0.874-6.563,4.042-5.958c1.288,0.246,3.368-0.232,4.643-1.068c3.32-2.174,3.642-1.883,1.35,1.219
				c-1.622,2.193-1.89,3.439-1.364,6.322c0.362,1.974,1.267,4.538,2.014,5.696c1.075,1.669,1.103,2.107,0.132,2.107
				C405.09,464.639,403.922,464.038,403.168,463.303L403.168,463.303z M409.763,440.379c-1.217-1.852-2.518-4.843-2.89-6.646
				c-0.373-1.803-1.223-4.619-1.889-6.258c-1.119-2.758-1.039-3.123,1.078-4.886c1.259-1.047,2.989-1.919,3.845-1.936
				c1.869-0.038,6.304,5.018,7.56,8.619c0.495,1.423,1.457,2.588,2.137,2.588c0.679,0,1.417,0.527,1.64,1.17
				c0.689,2-1.215,4.797-5.323,7.816l-3.945,2.9L409.763,440.379L409.763,440.379z M398.992,440.523
				c-0.613-1.512-1.323-8.663-0.862-8.663c0.112,0,1.023,1.39,2.025,3.088c1.274,2.159,1.594,3.708,1.06,5.151
				C400.294,442.591,399.862,442.673,398.992,440.523L398.992,440.523z M421.939,429.591c0.008-1.166,4.33-3.383,5.098-2.615
				c1.328,1.329,0.25,2.838-2.296,3.211C423.101,430.428,421.934,430.18,421.939,429.591L421.939,429.591z M419.174,424.105
				c0.029-0.628,0.804-2.993,1.721-5.256c1.121-2.763,1.85-3.647,2.216-2.689c0.302,0.784,0.054,1.95-0.55,2.593
				c-0.841,0.894-0.825,1.268,0.066,1.595c0.816,0.299,0.893,0.929,0.259,2.113C421.788,424.513,419.101,425.703,419.174,424.105z
				 M429.423,422.909c0-0.803,0.429-1.196,0.953-0.872c0.522,0.323,0.708,0.98,0.411,1.46
				C429.985,424.796,429.423,424.554,429.423,422.909z M391.589,421.713c-0.24-0.391-0.053-1.324,0.421-2.071
				c1.856-2.934,0.584-13.066-1.64-13.066c-1.028,0-1.294,1.047-1.093,4.318c0.197,3.21-0.146,4.619-1.334,5.488
				c-0.88,0.644-1.6,1.909-1.6,2.813c0,1.563-0.127,1.563-2.576,0.02c-4.484-2.827-4.916-4.017-4.912-13.521
				c0.003-9.964,1.77-14.627,5.757-15.201c1.571-0.226,2.3-1.137,2.774-3.471c0.734-3.617,2.101-4.762,5.702-4.782
				c1.393-0.008,3.666-0.531,5.052-1.163c2.247-1.024,2.67-0.923,3.904,0.936c0.762,1.147,1.966,2.085,2.675,2.085
				c1.173,0,1.962,4.363,1.269,7.024c-0.511,1.961-1.903,9.528-2.455,13.333c-0.483,3.354-0.192,4.467,1.889,7.195
				c2.912,3.817,2.962,4.17,0.822,5.794c-2.292,1.741-6.79,1.673-6.79-0.101c0-0.773-0.631-1.405-1.404-1.405
				c-0.849,0-1.404,0.868-1.404,2.191C396.646,420.313,392.528,423.23,391.589,421.713L391.589,421.713z M438.35,416.924
				c-0.606-0.981,3.095-3.322,3.931-2.487c0.62,0.62-1.515,3.376-2.614,3.376C439.244,417.813,438.651,417.413,438.35,416.924
				L438.35,416.924z M409.523,410.827c-1.417-1.708-2.575-3.949-2.575-4.98c0-1.984,3.69-10.833,3.725-8.934
				c0.012,0.61,1.335,3.221,2.939,5.803l2.916,4.693l-2.057,3.329c-1.132,1.831-2.128,3.299-2.215,3.261
				C412.169,413.962,410.94,412.535,409.523,410.827z">
				<title>Skjervøy</title>
			</path>
			<path id="path4734" data-url="/?s=+&amp;mu%5B%5D=Kvænangen" d="M522.112,521.531c-0.992-2.188-1.814-5.56-1.826-7.492l-0.021-3.512h-4.392
				c-3.462,0-5.698,0.789-10.551,3.721l-6.157,3.721l-4.609-1.387c-2.535-0.763-5.401-1.135-6.37-0.828
				c-2.439,0.773-8.944-3.904-10.431-7.5c-0.653-1.583-1.706-4.953-2.34-7.489c-1.05-4.213-0.981-4.838,0.779-7.221
				c1.06-1.434,1.928-3.878,1.928-5.432c0-1.554,0.841-4.205,1.869-5.891c2.238-3.67,2.336-5.549,0.478-9.141
				c-1.524-2.948-1.033-5.632,1.032-5.632c1.672,0,1.654-2.029-0.054-6.117c-1.099-2.629-1.866-3.248-4.026-3.248
				c-1.469,0-3.07-0.389-3.561-0.864c-0.488-0.476-2.153-1.002-3.699-1.17c-3.018-0.329-3.208-1.177-1.813-8.022
				c0.497-2.447,0.28-3.154-1.127-3.662c-0.958-0.346-2.418-1.299-3.242-2.118s-2.826-2.651-4.448-4.071
				c-1.622-1.421-2.949-3.408-2.949-4.416c0-2.927-2.995-3.855-10.26-3.179c-4.473,0.416-6.597,0.288-6.597-0.397
				c0-4.431,5.562-9.577,10.301-9.53c3.268,0.032,10.866,7.25,10.481,9.957c-0.196,1.377,0.328,2.223,1.638,2.638
				c1.333,0.423,1.929,1.411,1.929,3.196c0,1.472,0.91,3.439,2.119,4.575c2.517,2.363,8.243,4.89,11.083,4.89
				c2.313,0,8.807,6.56,11.528,11.647c0.982,1.836,2.108,3.337,2.503,3.337c0.394,0,1.203,1.475,1.799,3.278
				c1.074,3.257,4.301,5.139,6.491,3.786c0.589-0.365,0.758-0.03,0.424,0.84c-0.326,0.852,0.063,1.683,0.948,2.022
				c2.541,0.975,1.78,2.979-0.934,2.46c-1.998-0.382-2.374-0.149-2.1,1.3c0.438,2.306,5.604,2.926,7.304,0.877
				c0.664-0.799,1.998-1.453,2.964-1.453c4.03,0,0.714-5.489-3.392-5.617c-1.724-0.054-1.742-0.135-0.234-1.013
				c1.966-1.145,2.18-3.671,0.311-3.671c-0.731,0-2.732-1.492-4.449-3.316c-2.208-2.347-3.681-3.176-5.041-2.837
				c-1.413,0.351-2.355-0.255-3.558-2.292c-1.4-2.37-1.426-2.688-0.179-2.21c2.313,0.888,8-0.517,8-1.977
				c0-1.717-3.639-4.225-6.13-4.225c-1.542,0-2.511-1.323-4.474-6.105c-3.004-7.313-3.029-7.65-0.636-8.41
				c2.515-0.798,2.358-2.158-0.503-4.409c-2.756-2.168-2.034-3.746,2.425-5.301c2.334-0.813,2.895-0.687,3.712,0.84
				c0.528,0.988,0.847,3.599,0.707,5.802c-0.226,3.555-0.012,4.039,1.9,4.31c2.131,0.303,2.146,0.237,1.531-7.024
				c-0.409-4.836-1.105-7.714-2.046-8.462c-1.232-0.979-1.092-1.284,1.043-2.258c2.783-1.268,3.327-3.638,0.83-3.624
				c-0.901,0.005-3.893,1.059-6.648,2.341c-5.881,2.738-6.975,2.827-10.331,0.845l-2.518-1.488l2.946-3.124
				c1.663-1.765,4.597-3.568,6.741-4.146c3.02-0.813,4.289-1.866,6.218-5.155c2.719-4.642,3.209-8.95,1.017-8.95
				c-0.802,0-1.404,0.842-1.404,1.96c0,1.094-0.74,2.154-1.67,2.397c-0.918,0.24-2.172,1.57-2.786,2.956
				c-1.342,3.031-7.531,5.504-8.361,3.34c-0.272-0.709-1.095-1.289-1.829-1.289c-1.876,0-2.644,2.565-1.265,4.226
				c0.957,1.155,0.832,1.393-0.731,1.393c-1.039,0-2.12,0.604-2.404,1.344c-0.412,1.077-1.549,0.784-5.718-1.476
				c-4.109-2.225-5.204-3.296-5.204-5.089c0-2.701-2.379-3.084-3.057-0.493c-0.382,1.459-1.006,1.667-3.484,1.16
				c-2.295-0.469-3.568-1.595-5.31-4.697c-1.261-2.243-2.165-4.134-2.011-4.203c2.783-1.238,4.081-2.641,4.324-4.668
				c0.382-3.198-1.437-3.241-6.005-0.14c-1.897,1.288-4.129,2.328-4.958,2.311c-1.951-0.041-5.714-3.181-5.753-4.802
				c-0.041-1.754-1.982-4.056-4.084-4.847c-0.975-0.366-1.527-0.912-1.228-1.212s3.206,0.313,6.456,1.363
				c8.967,2.897,15.082,3.5,16.915,1.667c1.975-1.974,7.257-2.024,7.257-0.07c0,1.672,11.058,12.613,12.747,12.613
				c0.629,0,1.336,0.527,1.57,1.171c0.766,2.104,3.724-0.573,5.246-4.75c1.342-3.679,1.612-3.891,4.33-3.381
				c2.468,0.462,3.064,0.185,3.998-1.867c1.559-3.42,4.904-3.19,6.993,0.479c0.9,1.584,1.64,3.591,1.64,4.461s1.912,5.465,4.25,10.214
				c2.339,4.748,4.143,9.586,4.008,10.751c-0.21,1.813,0.605,3.997,4.773,12.781c0.825,1.738,8.242,4.674,11.976,4.738
				c3.998,0.07,7.771,1.875,7.764,3.715c-0.004,0.818-0.822,2.727-1.819,4.239c-2.107,3.196-1.759,4.273,1.38,4.273
				c3.822,0,4.597,3.066,1.812,7.17c-3.181,4.687-2.936,9.824,0.508,10.629c2.009,0.47,2.487,1.338,3.378,6.125
				c1.553,8.343,2.907,10.405,9.891,15.047c6.199,4.122,6.469,4.205,9.75,3.018c3.057-1.104,3.501-1.049,4.694,0.583
				c2.025,2.771,1.587,5.126-1.49,8.001c-2.542,2.374-2.81,3.183-2.81,8.467c0,4.211-0.408,6.141-1.461,6.911
				c-1.171,0.855-1.264,1.584-0.468,3.676c1.544,4.062,1.282,4.499-2.298,3.827c-1.81-0.339-5.519-0.338-8.243,0.002
				c-3.966,0.495-5.736,1.333-8.873,4.201c-3.497,3.197-7.148,4.758-11.13,4.758C524.519,525.512,523.107,523.721,522.112,521.531
				L522.112,521.531z M483.397,442.396c-0.309-0.901-0.994-2.692-1.523-3.98l-0.962-2.342l1.862,2.342
				c1.612,2.028,2.602,5.619,1.544,5.619C484.12,444.035,483.706,443.298,483.397,442.396z M470.63,437.479
				c0-0.515,0.422-0.936,0.937-0.936s0.936-0.667,0.936-1.482c0-1.952,1.834-1.28,3.547,1.299c1.321,1.99,1.256,2.056-2.027,2.056
				C472.156,438.417,470.63,437.995,470.63,437.479z M470.161,421.792c-1.546-0.818-4.024-1.74-5.509-2.047l-2.698-0.558l2.594-3.081
				l2.592-3.081l2.448,2.277c1.346,1.252,2.882,2.435,3.413,2.628c0.532,0.193,0.742,1.476,0.469,2.85
				C472.979,423.246,472.932,423.26,470.161,421.792L470.161,421.792z M443.659,402.642c-1.293-1.292-1.505-3.559-0.334-3.559
				c1.253,0,3.963,3.363,3.27,4.056C445.69,404.044,444.933,403.916,443.659,402.642z">
				<title>Kvænangen</title>
			</path>
			<path id="path4662" data-url="/?s=+&amp;mu%5B%5D=Karlsøy" d="M269.027,417.111c-0.259-0.901-0.775-2.376-1.146-3.278c-0.478-1.161-0.235-1.639,0.83-1.639
				c1.096,0,1.505,0.892,1.505,3.278C270.217,419.049,269.764,419.673,269.027,417.111L269.027,417.111z M308.29,470.258
				c-0.252-0.772-0.71-2.563-1.021-3.98c-0.672-3.066-2.418-3.327-4.113-0.614c-1.154,1.848-1.325,1.87-2.967,0.383
				c-1.042-0.942-2.474-1.345-3.559-1c-1.586,0.503-1.896-0.023-2.446-4.174c-0.682-5.141-2.377-6.665-5.348-4.81
				c-0.955,0.596-1.953,1.084-2.217,1.084c-0.266,0-0.481-2.94-0.481-6.534c0-5.965-0.208-6.67-2.38-8.093
				c-1.919-1.257-2.832-1.353-4.715-0.496c-1.894,0.864-2.435,0.801-2.871-0.335c-0.296-0.771-1.691-1.399-3.106-1.399
				c-2.506,0-2.545-0.081-1.548-3.265c1.27-4.057,5.731-6.213,6.679-3.227c0.884,2.785,2.956,2.145,3.608-1.115
				c0.484-2.416,0.82-2.73,1.935-1.805c0.742,0.616,1.48,2.245,1.639,3.619c0.182,1.568,0.95,2.625,2.063,2.836
				c1.399,0.265,1.664-0.079,1.258-1.631c-0.283-1.083-0.133-1.968,0.334-1.968c1.725,0,0.691-3.374-1.999-6.52
				c-1.524-1.783-2.758-3.68-2.743-4.214c0.016-0.535,0.458-0.234,0.983,0.667c1.299,2.231,2.242,2.059,3.467-0.629
				c0.764-1.676,1.546-2.133,3.002-1.752c1.285,0.336,2.416-0.096,3.255-1.243c0.707-0.968,1.607-1.436,2.002-1.041
				c0.394,0.394,0.218,1.215-0.392,1.824c-1.54,1.539-1.389,4.479,0.229,4.479c0.735,0,2.416-1.37,3.735-3.043
				c1.494-1.894,2.403-2.496,2.409-1.592c0.006,0.798-0.378,1.851-0.854,2.341c-0.475,0.49-1.129,2.365-1.456,4.167
				c-0.529,2.931-0.163,3.749,3.45,7.726c5.444,5.991,7.083,5.894,7.083-0.423c0-4.232,0.351-5.151,2.664-6.995
				c2.333-1.861,2.898-1.967,4.556-0.859c1.49,0.996,1.827,2.078,1.583,5.081c-0.613,7.532,2.816,10.973,3.939,3.953
				c0.325-2.031,0.965-3.923,1.421-4.205c0.456-0.283,1.972,0.983,3.367,2.813c2.481,3.253,2.5,3.37,0.807,5.241
				c-1.97,2.178-7.055,4.899-10.862,5.814c-2.894,0.695-3.236,1.68-1.18,3.385c1.866,1.549,0.908,5.172-2.488,9.415
				c-1.462,1.826-3.47,5.618-4.462,8.428C309.525,469.455,308.548,471.056,308.29,470.258z M324.534,461.898
				c0-0.553-1.54-1.005-3.423-1.005c-3.248,0-3.344-0.086-1.884-1.7c0.846-0.936,1.811-3.063,2.145-4.728
				c0.451-2.254,1.486-3.476,4.056-4.787c4.451-2.271,10.337-8.794,10.375-11.499c0.016-1.157,0.618-2.879,1.336-3.828
				c1.584-2.09,3.572-1.231,6.113,2.64c1.704,2.599,1.698,2.694-0.297,5.547c-1.117,1.597-2.322,3.123-2.679,3.392
				c-0.356,0.27-1.081,3.187-1.613,6.483c-0.531,3.296-1.37,6.398-1.865,6.893c-1.521,1.521-3.742,0.03-3.176-2.133
				c0.308-1.174-0.156-2.7-1.154-3.803c-2.918-3.225-4.069-2.294-4.374,3.533c-0.222,4.241-0.626,5.442-1.92,5.688
				C325.271,462.763,324.534,462.451,324.534,461.898z M346.073,431.393c-1.852-1.971-1.946-2.341-0.601-2.341
				c0.877,0,1.839,0.632,2.136,1.405c0.296,0.773,1.361,1.405,2.366,1.405c1.006,0,1.568,0.421,1.25,0.936
				C350.256,434.365,348.387,433.855,346.073,431.393z M268.715,428.895c-0.265-0.429-1.406-0.789-2.534-0.801
				c-2.591-0.026-7.606-3.673-5.095-3.705c1.226-0.016,1.639-0.8,1.639-3.111c0-1.7-0.458-3.548-1.018-4.109
				c-1.174-1.174,0.168-2.361,1.585-1.401c2.134,1.444,4.115,5.459,4.115,8.34c0,4.657,2.047,3.716,4.563-2.098
				c1.223-2.824,2.487-5.111,2.81-5.083c0.322,0.028,1.538,1.258,2.701,2.731c2.229,2.825,1.905,5.941-0.846,8.141
				C274.985,429.122,269.337,429.902,268.715,428.895L268.715,428.895z M307.208,422.107c0-1.703,0.29-2.021,1.171-1.29
				c0.644,0.535,1.171,1.552,1.171,2.262c0,0.709-0.527,1.29-1.171,1.29S307.208,423.351,307.208,422.107z M338.612,421.653
				c-3.434-0.462-4.442-1.066-5.619-3.372c-0.789-1.545-1.801-3.076-2.249-3.402c-0.449-0.327-0.061-1.016,0.86-1.531
				c1.488-0.833,1.539-1.267,0.452-3.893c-0.673-1.625-2.039-3.526-3.037-4.225c-1.146-0.802-1.443-1.498-0.807-1.891
				c1.351-0.834,1.27-2.908-0.172-4.424c-0.646-0.681-2.388-2.712-3.867-4.516c-1.481-1.802-3.796-3.49-5.146-3.75
				c-2.123-0.408-2.476-0.977-2.614-4.214c-0.089-2.058,0.047-3.004,0.303-2.103c0.254,0.901,1.268,1.639,2.249,1.639
				c1.566,0,1.719-0.497,1.236-4.017c-0.423-3.097-0.19-4.316,1.026-5.325c1.351-1.122,1.699-1.117,2.438,0.037
				c1.518,2.368,2.595,7.323,2.047,9.419c-0.469,1.792-0.229,1.975,2.021,1.544c3.027-0.578,4.27,1.62,5.148,9.111
				c0.498,4.25,0.787,4.71,3.119,4.978c2.148,0.248,2.568-0.059,2.563-1.873c-0.004-1.193,0.247-3.678,0.559-5.523l0.564-3.354
				l2.717,2.385c2.228,1.955,2.466,2.525,1.32,3.166c-1.742,0.975-1.809,3.161-0.129,4.154c0.698,0.412,1.767,1.697,2.374,2.856
				c1.312,2.497,3.844,2.804,3.865,0.468c0.012-1.388,0.149-1.425,0.896-0.245c0.64,1.014,0.372,1.665-0.981,2.39
				c-2.142,1.147-1.448,2.298,1.397,2.318c1.073,0.007,3.633,0.599,5.686,1.313l3.734,1.3l-3.734,1.729
				c-4.38,2.029-5.214,2.955-4.901,5.437c0.146,1.157-0.634,2.274-2.111,3.03C347.372,422.522,345.551,422.584,338.612,421.653
				L338.612,421.653z M280.159,416.174c-0.318-0.901-0.824-2.166-1.125-2.81c-1.057-2.267,1.157-1.137,3.209,1.639
				c1.972,2.667,1.986,2.809,0.285,2.809C281.543,417.813,280.476,417.076,280.159,416.174z M246.336,415.94
				c-0.318-0.515-0.133-0.936,0.413-0.936c0.546,0,0.992,0.421,0.992,0.936c0,0.516-0.185,0.937-0.413,0.937
				C247.1,416.876,246.654,416.456,246.336,415.94z M311.799,413.72c-6.12-2.237-7.811-6.148-4.106-9.501
				c1.84-1.664,1.958-1.644,4.5,0.792c1.436,1.375,3.009,2.503,3.496,2.505s2.116,0.989,3.619,2.192
				C324.602,413.944,319.652,416.589,311.799,413.72L311.799,413.72z M287.435,410.211c-1.954-2-4.355-3.636-5.338-3.636
				c-1.611,0-1.57-0.175,0.419-1.787c2.5-2.024,3.621-1.744,3.621,0.905c0,1.207,0.644,1.817,1.915,1.817c1.681,0,1.84-0.4,1.302-3.27
				c-1.101-5.871-0.98-6.548,1.231-6.862c2.926-0.417,2.717-2.979-0.242-2.979c-2.129,0-2.239-0.18-1.171-1.93
				c0.994-1.628,0.922-2.12-0.46-3.146c-1.997-1.483-2.148-2.552-0.259-1.827c0.76,0.291,2.098-0.187,2.974-1.063
				c1.369-1.369,1.417-1.876,0.342-3.603c-1.139-1.829-1.112-1.895,0.303-0.724c0.856,0.707,1.556,1.88,1.556,2.608
				c0,0.728,0.681,2.362,1.513,3.632c0.928,1.417,1.109,2.308,0.468,2.308c-0.574,0-1.044,0.632-1.044,1.405s0.409,1.405,0.909,1.405
				c1.412,0,2.686,5.843,1.699,7.785c-0.475,0.934-0.769,2.83-0.651,4.214c0.276,3.264-1.729,7.39-3.86,7.947
				C291.58,413.693,289.728,412.56,287.435,410.211L287.435,410.211z M269.514,407.686c-2.995-0.289-4.123-2.207-2.05-3.488
				c0.547-0.337,1.379-1.626,1.85-2.864c1.694-4.457,4.069-2.105,3.54,3.504C272.577,407.77,272.354,407.96,269.514,407.686z
				 M278.793,400.956c0-1.288,0.212-1.814,0.473-1.17c0.26,0.644,0.26,1.697,0,2.341C279.005,402.77,278.793,402.244,278.793,400.956z
				 M353.107,400.971c-0.323-0.523-1.381-0.952-2.35-0.952c-2.32,0-2.898-1.079-1.557-2.905c0.963-1.309,1.396-1.188,3.771,1.059
				c1.604,1.516,2.288,2.782,1.704,3.144C354.137,401.65,353.431,401.494,353.107,400.971L353.107,400.971z M364.516,384.216
				c-0.356-1.738-0.647-4.519-0.647-6.178s-0.677-4.372-1.503-6.028c-0.827-1.657-1.231-3.283-0.899-3.615
				c0.331-0.331,0.846,0.327,1.144,1.463c0.297,1.136,0.845,2.066,1.217,2.066s1.157,1.053,1.744,2.341
				c0.586,1.288,1.707,2.342,2.491,2.342c1.829,0,1.804,0.839-0.09,2.931c-0.834,0.921-1.807,3.061-2.162,4.756l-0.646,3.082
				L364.516,384.216z M331.386,384.957c-1.095-1.095-0.571-4.604,0.686-4.604c1.181,0,2.119,3.83,1.171,4.777
				C332.744,385.628,331.987,385.558,331.386,384.957z">
				<title>Karlsøy</title>
			</path>
		</g>
</svg>
